<svg id="Layer_1" data-name="Layer 1" xmlns="http://www.w3.org/2000/svg" viewBox="0 0 40.79 44.37"><defs><style>.cls-1{fill:#231f20;}</style></defs><title>footer_logo</title><path class="cls-1" d="M3.75,3.07h1.6a7.75,7.75,0,0,1,5.45,2A6.7,6.7,0,0,1,13,10.27a7.33,7.33,0,0,1-1.23,3.88A5.81,5.81,0,0,1,8.9,16.72a11.65,11.65,0,0,1,6.4,4.1,12.19,12.19,0,0,1,2.55,7.93,11.19,11.19,0,0,1-3.65,8.3,12.26,12.26,0,0,1-8.85,3.52H3.75Zm1.6,1.4v11.8h.4a5.35,5.35,0,0,0,4-1.82,6,6,0,0,0,1.72-4.2,5.58,5.58,0,0,0-1.7-4.08,5.49,5.49,0,0,0-4-1.7Zm0,13.15V39.17h.4A10,10,0,0,0,13.17,36a10.79,10.79,0,0,0,0-15.17,10,10,0,0,0-7.45-3.18Z"/><path class="cls-1" d="M23.1,3.07h1.6a7.75,7.75,0,0,1,5.45,2,6.7,6.7,0,0,1,2.2,5.17,7.33,7.33,0,0,1-1.23,3.88,5.81,5.81,0,0,1-2.87,2.57,11.65,11.65,0,0,1,6.4,4.1,12.19,12.19,0,0,1,2.55,7.93,11.19,11.19,0,0,1-3.65,8.3,12.26,12.26,0,0,1-8.85,3.52H23.1Zm1.6,1.4v11.8h.4a5.33,5.33,0,0,0,4-1.82,6,6,0,0,0,1.73-4.2,5.58,5.58,0,0,0-1.7-4.08,5.49,5.49,0,0,0-4-1.7Zm0,13.15V39.17h.4A10,10,0,0,0,32.52,36a10.79,10.79,0,0,0,0-15.17,10,10,0,0,0-7.45-3.18Z"/></svg>
