<svg id="Layer_1" data-name="Layer 1" xmlns="http://www.w3.org/2000/svg" viewBox="0 0 28.35 42.52"><defs><style>.cls-1{fill:none;stroke:#e8e1d2;stroke-miterlimit:10;stroke-width:2px;}</style></defs><title>footer_bb_fb</title><polyline class="cls-1" points="23.71 13.17 23.71 20.18 23.71 20.8"/><polyline class="cls-1" points="9.96 19.34 9.96 20.18 10.14 41.15 10.14 41.2"/><polyline class="cls-1" points="9.37 41.15 10.14 41.15 18.34 41.15 19.26 41.15"/><polyline class="cls-1" points="18.34 19.34 18.34 20.18 18.34 41.15 18.34 41.65"/><polyline class="cls-1" points="17.63 20.18 18.34 20.18 23.71 20.18 24.59 20.18"/><polyline class="cls-1" points="17.24 13.17 18.08 13.17 23.71 13.17 24.59 13.17"/><polyline class="cls-1" points="4.34 13.17 4.97 13.17 9.91 13.17 10.39 13.17"/><polyline class="cls-1" points="4.97 12.36 4.97 13.17 4.97 20.18 4.97 20.51"/><polyline class="cls-1" points="10.7 20.18 9.96 20.18 4.97 20.18 4.02 20.18"/><path class="cls-1" d="M24.59,1h-.88C16.34.94,9.41.6,9.91,13.17c0,.3,0,.59.05.9"/><path class="cls-1" d="M24.59,8.16l-.88,0c-3.21-.09-6.58-.39-5.63,5"/><polyline class="cls-1" points="23.71 0.97 23.71 8.14 23.71 8.86"/></svg>
