<svg id="Layer_1" data-name="Layer 1" xmlns="http://www.w3.org/2000/svg" viewBox="0 0 42.52 48.19"><defs><style>.cls-1{fill:none;stroke:#231f20;stroke-miterlimit:10;stroke-width:2px;}</style></defs><title>footer_bb_fb</title><polyline class="cls-1" points="28.09 15.43 28.09 23.07 28.09 23.75"/><polyline class="cls-1" points="12.73 22.4 12.73 22.96 12.93 45.94 12.93 46.24"/><polyline class="cls-1" points="12.2 45.94 12.93 45.94 21.97 45.94 22.36 45.94"/><polyline class="cls-1" points="21.97 22.4 21.97 23.07 21.97 45.94 21.97 46.73"/><polyline class="cls-1" points="21.18 23.07 21.97 23.07 28.09 23.07 28.78 23.07"/><polyline class="cls-1" points="20.76 15.43 21.67 15.43 28.09 15.43 28.78 15.43"/><polyline class="cls-1" points="6.69 15.43 7.03 15.43 12.79 15.43 13.3 15.43"/><polyline class="cls-1" points="7.03 14.7 7.03 15.43 7.03 22.96 7.03 23.07"/><polyline class="cls-1" points="13.57 22.96 12.73 22.96 7.03 22.96 6.29 22.96"/><path class="cls-1" d="M28.78,2.14h-.69c-8.19,0-16-.57-15.3,13.29,0,.22,0,.45,0,.69"/><path class="cls-1" d="M28.09,10c-3.38,0-7.45-1-6.42,5.47"/><polyline class="cls-1" points="28.09 2.13 28.09 2.14 28.09 9.96 28.09 10.73"/></svg>
