<svg id="Layer_1" data-name="Layer 1" xmlns="http://www.w3.org/2000/svg" viewBox="0 0 11338.58 2834.65"><defs><style>.cls-1{fill:#fff;}.cls-2{fill:#e7e0d1;}.cls-3{fill:#050505;}.cls-4{fill:#f1ede6;}.cls-5{fill:#40555c;}.cls-6{fill:#5e8394;}.cls-7{fill:none;stroke:#050505;stroke-miterlimit:10;stroke-width:0.5px;}</style></defs><title>haand</title><path class="cls-1" d="M1042.33,1569.69v61.6c0,3.22,5,3.22,5,0v-61.6c0-3.22-5-3.22-5,0Z"/><path class="cls-2" d="M1585.89,265c-5.77,9,4.92,21.23,15.6,20.87s19.37-8.38,26.54-16.3a283.89,283.89,0,0,0,70-148.71c.85-5.86,1.5-11.95-.29-17.6s-6.64-10.72-12.56-10.94c-6.67-.25-12,5.34-16.12,10.56A456.44,456.44,0,0,0,1585,268.68"/><path class="cls-3" d="M1584.81,264.39c-5.62,10,4,21.23,14.12,22.6,14.91,2,27-12.79,35.48-22.78a285.87,285.87,0,0,0,50.17-85.76,280.72,280.72,0,0,0,13.31-49c2.1-11.91,6.12-31.51-8.49-37.43-13.6-5.51-24.47,13.87-31,22.6a454.35,454.35,0,0,0-29.05,44.13,460.15,460.15,0,0,0-45.61,109.61,1.25,1.25,0,0,0,2.41.66,457.2,457.2,0,0,1,81.06-161.83c4.14-5.28,9.34-13.05,16.71-13.49,10.29-.62,13.91,11,13.63,19.2-.49,14.77-4.6,30.17-8.65,44.31A284.4,284.4,0,0,1,1652,236.77c-9,13.4-19,27-30.85,38-6,5.52-14.59,11.51-23.19,9.49-7.81-1.84-15.55-10.61-11-18.64a1.25,1.25,0,0,0-2.16-1.27Z"/><path class="cls-3" d="M1694.89,141.34c24.39,46.34,29.25,100.2,21.62,151.45-8,53.52-29.67,103.78-55.41,151-14.86,27.27-31.14,53.72-47.43,80.15-.85,1.38,1.31,2.63,2.16,1.27,56.25-91.28,116.3-191.31,105.25-303-2.83-28.63-10.61-56.6-24-82.1-.75-1.42-2.9-.16-2.15,1.26Z"/><path class="cls-3" d="M1615.07,524.84q-45.69,87.84-85.48,178.59-19.65,44.84-37.8,90.3c-12.22,30.62-24.74,61.36-34.39,92.9-10.38,33.91-16.57,69.59-9.91,104.86.3,1.57,2.71.91,2.41-.67-6.09-32.25-1.19-65,7.75-96.24s21.14-61.25,33-91.29q35.83-90.59,77.59-178.68,23.57-49.71,49-98.51c.74-1.43-1.42-2.69-2.16-1.26Z"/><path class="cls-3" d="M1588.07,269c-50.15,48.38-59.49,121.75-97.41,178.07-10.86,16.12-24.08,30.56-40.26,41.47-1.32.9-.07,3.06,1.27,2.16,58-39.14,71.52-112.91,102.47-171,9.55-17.92,21-34.77,35.7-48.91,1.16-1.12-.61-2.89-1.77-1.77Z"/><path class="cls-3" d="M1454.91,486.66c-46.23,69.06-84,143.29-119.23,218.42-36.81,78.4-72.27,157.45-108.26,236.23L1165,1078c-.66,1.45,1.49,2.72,2.16,1.26Q1222.54,958,1278,836.68c34.93-76.45,69-153.47,108-227.95,21.71-41.41,45.1-82,71.11-120.81.89-1.34-1.27-2.59-2.16-1.26Z"/><path class="cls-3" d="M1171.74,649a66.14,66.14,0,0,1,48.34-2.17c16.78,5.66,29.06,17.9,37.8,33,9.25,16,15.86,33.76,21.59,51.26a381.62,381.62,0,0,1,13.64,55.75c.27,1.59,2.68.92,2.41-.66a375.83,375.83,0,0,0-28-92.75c-5.81-12.86-12.85-25.62-23.36-35.28A66.77,66.77,0,0,0,1211.39,642a68.3,68.3,0,0,0-40.91,4.86c-1.46.66-.19,2.82,1.26,2.16Z"/><path class="cls-2" d="M1158.68,654.71a155.67,155.67,0,0,0-5.42,50.32c.94,16.8,4.61,33.31,8.26,49.73,1.19,5.38,3.42,11.8,8.84,12.76,4,.71,7.89-2.23,9.63-5.88s1.8-7.84,1.76-11.89A423,423,0,0,0,1169.88,654"/><path class="cls-3" d="M1157.48,654.38c-9.16,33.77-6.15,69.83,3.47,103.25,1.21,4.23,3.34,9.25,7.88,10.78s9.18-1.12,11.59-4.95c4-6.31,2.62-15.37,2.41-22.4q-.4-13.53-1.67-27a432.3,432.3,0,0,0-10.07-60.35c-.38-1.56-2.79-.9-2.42.67a425.82,425.82,0,0,1,9.9,58.71q1.31,13.47,1.73,27c.16,4.91.55,10,.07,14.89-.53,5.38-4.62,14.42-11.66,10.65-3.48-1.86-4.77-6.39-5.69-9.94-1.24-4.8-2.18-9.7-3.19-14.55a275.06,275.06,0,0,1-4.7-28.37,158.34,158.34,0,0,1,4.76-57.73,1.25,1.25,0,0,0-2.41-.66Z"/><path class="cls-3" d="M1174,773.41q-12.73,122.45-17.72,245.51-1.41,35.08-2.19,70.17a1.25,1.25,0,0,0,2.5,0q2.76-123.07,13.27-245.79,3-35,6.64-69.89c.17-1.59-2.34-1.58-2.5,0Z"/><path class="cls-3" d="M1448.77,978,1617.7,821.74c1.18-1.09-.59-2.86-1.77-1.77L1447,976.19c-1.19,1.09.58,2.86,1.76,1.76Z"/><path class="cls-3" d="M1760.42,720.63a1366.82,1366.82,0,0,1,182.65-162q27.53-20.31,56-39.21c1.33-.89.08-3-1.27-2.16a1371.38,1371.38,0,0,0-190.41,152.38q-25,24-48.77,49.21c-1.11,1.17.66,2.95,1.76,1.77Z"/><path class="cls-2" d="M2141.69,461.84c2.12-7.65,4.26-15.45,4-23.39s-3.34-16.18-9.79-20.81c-11.53-8.27-27.57-2-39.79,5.19a318.56,318.56,0,0,0-81.67,69.24c-3.88,4.63-8.51,9.19-11.47,14.5s-.53,8.66.64,14.17c1.05,4.94-1.25,9.67-.51,14.69a21.71,21.71,0,0,0,8.12,14c8.57,6.49,20.69,6.53,30.78,2.83s18.61-10.63,26.94-17.43c28.42-23.23,57.34-47,77.13-77.92"/><path class="cls-3" d="M2142.89,462.18c3.66-13.23,7.49-29.13-1.72-41.08-7.8-10.13-20.93-9.92-32-6-14.38,5.18-27.58,14.84-39.81,23.81a320.62,320.62,0,0,0-36.28,31q-9,8.9-17.22,18.5c-4.77,5.55-10.54,11-14,17.51s.79,11.44.74,18.07c0,7-1.8,12.54,1.73,19.19,6,11.22,19.59,14.26,31.26,12.12,14.66-2.71,26.36-13.17,37.53-22.31,27.33-22.36,54.64-45.53,74-75.45.88-1.35-1.28-2.61-2.16-1.26-14.95,23.11-34.83,42.28-55.68,60-10.34,8.81-20.7,17.89-31.73,25.84-10.81,7.79-24.39,14.21-38,10.11-7.48-2.26-13.43-7.91-15.06-15.71-.66-3.19-.1-6.15.26-9.33a24.05,24.05,0,0,0-.82-9.91c-1-3.68-1.8-6.44,0-10.14,1.7-3.4,4.39-6.34,6.86-9.19,4.62-5.32,9.18-10.72,14-15.91a317.14,317.14,0,0,1,64.25-53.54c11.43-7.2,27.1-17.42,41.25-12.41,19,6.74,14.17,30.76,10.13,45.36a1.25,1.25,0,0,0,2.41.67Z"/><path class="cls-3" d="M2134.6,481.46c23,46.57-1.09,98.67-32.24,134.68-16.14,18.66-34.55,35.22-52.55,52l-61.17,57.16-68.46,64c-1.18,1.1.6,2.86,1.77,1.77l128.17-119.77c35.47-33.15,75.8-67.35,90.51-115.45,7.59-24.84,7.77-52.05-3.88-75.67-.71-1.44-2.86-.17-2.15,1.27Z"/><path class="cls-3" d="M1938.3,788.14A658.93,658.93,0,0,1,2089.45,703c1.48-.59.84-3-.66-2.41A661.12,661.12,0,0,0,1937,786c-1.27.95,0,3.12,1.26,2.16Z"/><path class="cls-2" d="M2192.14,636.09c13.41-11,32.6-15.06,49.86-10.67a83.36,83.36,0,0,1-28.75,69"/><path class="cls-3" d="M2193,637a56.15,56.15,0,0,1,30.31-11.85c4.46-.35,12-1,16,1,3.1,1.56,1.56,10,1.23,13.23a83.17,83.17,0,0,1-28.24,54.18c-1.21,1.06.56,2.82,1.77,1.77a85.41,85.41,0,0,0,29.12-69.86,1.28,1.28,0,0,0-.92-1.2,59.69,59.69,0,0,0-51.07,11c-1.26,1,.52,2.76,1.77,1.77Z"/><path class="cls-2" d="M2088.61,704.28c-9.66,17.54,3.9,41,22.86,47.46s40-.07,57.33-10.12A149,149,0,0,0,2230.47,672"/><path class="cls-3" d="M2087.53,703.65c-5.48,10.57-3.66,22.74,2.66,32.55,7,10.87,18.15,17.43,30.9,19,30.83,3.73,61.71-17.76,81.82-39.08a151.38,151.38,0,0,0,28.64-43.52c.64-1.46-1.52-2.74-2.16-1.26a148.94,148.94,0,0,1-51.24,62.86c-21.63,15.05-56.47,29.55-79.22,8.57-10.25-9.45-16-24.78-9.24-37.84.74-1.43-1.42-2.69-2.16-1.26Z"/><path class="cls-3" d="M2215.3,694.39c4.53,45.06-18.16,87.53-49,118.84-31.26,31.75-70.39,54.63-107.93,78-71.16,44.38-143.54,87.85-207.56,142.39-35.55,30.28-68.14,64-95.32,102.08-.94,1.31,1.23,2.56,2.16,1.26,50.09-70.09,118.14-124.26,189.14-171.88,35.65-23.91,72.23-46.39,108.65-69.08,37-23,75.4-45.37,107.07-75.58,34-32.48,60.15-77.58,55.28-126.08-.16-1.58-2.66-1.6-2.5,0Z"/><path class="cls-3" d="M1327.12,1389.78c5.08-73.6,69.82-122.48,121.15-166.8l49.93-43.12c1.22-1-.55-2.81-1.76-1.76-30,25.91-60.39,51.46-90,77.88-26.08,23.29-51.12,48.84-66.85,80.47a141.79,141.79,0,0,0-15,53.33c-.11,1.6,2.39,1.59,2.5,0Z"/><path class="cls-3" d="M1787.69,862.27c-51.62,6.18-89.73,44.87-120.58,83.58-19.43,24.39-37.85,49.6-56.65,74.46l-61.36,81.09-69.78,92.23c-1,1.29,1.2,2.53,2.16,1.27l120.31-159c19.15-25.31,38.18-50.73,57.47-75.93,15.71-20.52,32.22-40.69,51.66-57.81,21.79-19.19,47.58-33.87,76.77-37.37,1.58-.19,1.6-2.69,0-2.5Z"/><path class="cls-3" d="M1788.94,857.68l171.2-83.48c1.45-.7.18-2.86-1.26-2.15l-171.2,83.47c-1.45.7-.18,2.86,1.26,2.16Z"/><path class="cls-3" d="M1443,993.37c-44.13,33.57-88.47,66.88-132.38,100.74-18,13.89-35.85,28.49-50.07,46.38a134.89,134.89,0,0,0-27.27,61.06c-4.85,27.33-3.17,55.29-1.36,82.83.11,1.59,2.61,1.61,2.5,0-3.14-47.82-4.89-98.18,25.17-138.57,13.5-18.13,31-32.91,48.68-46.74,20.9-16.3,42.15-32.15,63.24-48.2l72.75-55.34c1.26-1,0-3.13-1.26-2.16Z"/><path class="cls-3" d="M1427,1528.23q67.79-83.62,135.59-167.22c42.07-51.66,84.76-102.93,131.15-150.81a1074.68,1074.68,0,0,1,82.09-76.75c1.23-1-.55-2.8-1.77-1.77-51.07,42.73-97.23,90.88-140.9,141.06-44.84,51.51-87.37,105-130.38,158.06l-77.55,95.66c-1,1.24.75,3,1.77,1.77Z"/><path class="cls-3" d="M1761.62,1128.92l-13.48,18c-1,1.29,1.2,2.53,2.16,1.26l13.48-18c1-1.28-1.2-2.53-2.16-1.26Z"/><path class="cls-3" d="M1762.38,1151.79A878,878,0,0,1,1938.7,1025c1.41-.78.15-2.93-1.26-2.16A880.82,880.82,0,0,0,1760.61,1150c-1.18,1.1.59,2.86,1.77,1.77Z"/><path class="cls-2" d="M1941,1022.44c-6.71,15.07,4.48,33.82,20.12,39.07s33.21-.41,46.45-10.25,23.1-23.42,33.35-36.33,21.53-25.69,36.33-33"/><path class="cls-3" d="M1939.79,1022.11c-4.11,10-1.35,21,5.23,29.33,7.31,9.21,18.39,13.66,30,13.29,29.72-.93,48.9-26.36,65.68-47.58,10.5-13.28,21.79-26.32,37.13-34.11,1.43-.73.17-2.89-1.27-2.16-30.35,15.42-43,49.55-69.67,69.3-13,9.6-31,15.87-46.75,9.67-14.16-5.57-24-22.35-18-37.07.61-1.49-1.81-2.14-2.41-.67Z"/><path class="cls-2" d="M2041.85,938.5c11-5.07,25.35-1.47,32.66,8.22s6.88,24.44-1,33.67"/><path class="cls-3" d="M2042.48,939.58c10.66-4.53,24-1.45,31,7.92s6.39,23-.88,32c-1,1.24.75,3,1.76,1.77,8-10,9-24.88,1.12-35.31s-22.48-13.55-34.28-8.54c-1.48.62-.21,2.78,1.26,2.16Z"/><path class="cls-4" d="M1942.05,1028.47a173.78,173.78,0,0,1,97.25-85.16"/><path class="cls-3" d="M1943.13,1029.1a173.49,173.49,0,0,1,96.5-84.59c1.51-.53.86-2.94-.66-2.41a176.09,176.09,0,0,0-98,85.73c-.73,1.44,1.43,2.7,2.16,1.27Z"/><path class="cls-3" d="M2058.56,1006.5c14.79,69.5-47.9,123.21-91.52,166.94l-152.7,153.08q-43.29,43.38-86.56,86.77a1.25,1.25,0,0,0,1.77,1.77l157.63-158,78.81-79c23.64-23.69,48.91-46.69,68.56-73.94,20.32-28.19,33.87-63.23,26.42-98.26-.34-1.57-2.75-.9-2.41.67Z"/><path class="cls-3" d="M1745.86,1393.34c-61.41,65.4-103.6,148.17-121,236.16a474.53,474.53,0,0,0-8.68,75.43c-.06,1.61,2.44,1.61,2.5,0,3.1-89.24,32-177,81.94-251a470.54,470.54,0,0,1,47-58.8c1.1-1.17-.66-2.94-1.77-1.77Z"/><path class="cls-3" d="M1627.58,1666.61q-49,136.14-103.56,270.22-27.48,67.55-56.34,134.51c-16.47,38.21-32.58,76.82-52.76,113.27-21.58,38.95-48.6,75.53-85.42,101.31-1.3.91-.06,3.08,1.27,2.16,66.6-46.64,99.63-124.64,130.94-196.7q57.91-133.31,110.35-268.92,29.88-77.25,57.94-155.18c.54-1.52-1.87-2.17-2.42-.67Z"/><path class="cls-3" d="M1350.43,2266.08c-18,31-40,59.59-62.16,87.62-26.42,33.35-53.83,65.92-80.79,98.84-54.56,66.61-110.11,135-148.79,212.42-17.85,35.74-32.23,74.37-34.54,114.58-.09,1.61,2.41,1.6,2.5,0,2.09-36.4,14.29-71.56,29.8-104.28,17.71-37.37,40.09-72.43,63.92-106.15,50.57-71.55,108.61-137.3,163.3-205.65,24.59-30.73,49.1-62,68.92-96.12a1.25,1.25,0,0,0-2.16-1.26Z"/><path class="cls-3" d="M1094.19,1507.52a1570.7,1570.7,0,0,0,52.35-353.13q1.68-50.9,0-101.83c0-1.6-2.55-1.61-2.5,0a1567.23,1567.23,0,0,1-29.57,357q-9.81,49-22.73,97.29a1.25,1.25,0,0,0,2.41.66Z"/><path class="cls-3" d="M1058.26,1686.79c2.37-71.51,10.79-142.79,22-213.42s25.35-140.54,41.93-210q12.27-51.35,26.52-102.17a1.25,1.25,0,0,0-2.41-.66c-17.91,63.49-33.26,127.71-46.55,192.32-14.66,71.28-26.82,143.15-35,215.48-4.45,39.34-7.69,78.84-9,118.41,0,1.61,2.45,1.61,2.5,0Z"/><path class="cls-3" d="M1063.76,1687.34l0-.08-2.41-.66c-10.17,43.69-21.72,87.1-32.58,130.63l-57.87,232c-13.06,52.32-25.16,105-39.24,157.05-9.3,34.41-25.56,66.6-44.25,96.8-42.45,68.61-97.22,128.75-148.57,190.63-47.8,57.61-97.35,118.16-124.72,188.69q-4.54,11.7-8.07,23.75a1.25,1.25,0,0,0,2.41.67c21.18-72.52,69.76-134.92,116.74-192.61,50.9-62.51,105.9-122.17,151-189.18,20.09-29.86,38.24-61.42,50.62-95.31,7.27-19.91,11.77-40.66,16.89-61.19l20-80.08q30.48-122.19,61-244.39,19.23-77.07,38.45-154.15c.22-.87.45-1.74.65-2.62a1.25,1.25,0,0,0-2.41-.66l0,.08a1.25,1.25,0,0,0,2.41.66Z"/><path class="cls-3" d="M1595.09,1318.16a1.25,1.25,0,0,0,0-2.5,1.25,1.25,0,0,0,0,2.5Z"/><path class="cls-3" d="M1613.21,824.19a1218.89,1218.89,0,0,1,151.58-110.14c1.37-.84.12-3-1.26-2.16a1223.59,1223.59,0,0,0-152.08,110.53c-1.23,1,.55,2.8,1.76,1.77Z"/><path class="cls-3" d="M1521.43,1150.84l68,56c1.23,1,3-.74,1.77-1.76l-68-56c-1.24-1-3,.74-1.77,1.76Z"/><path class="cls-3" d="M1494.53,1184c7.28-.14,15.09,2.65,18.75,9.35.77,1.41,2.93.15,2.16-1.26-4.07-7.45-12.77-10.75-20.91-10.59a1.25,1.25,0,0,0,0,2.5Z"/><path class="cls-3" d="M1565.41,1243l-3.54-3.66-1.77,1.77c20,20.58,33.27,47.09,35.86,75.84.15,1.59,2.65,1.6,2.5,0-2.65-29.43-16.06-56.53-36.59-77.61-1.12-1.15-2.89.61-1.77,1.77l3.55,3.66c1.12,1.15,2.88-.62,1.76-1.77Z"/><path class="cls-3" d="M1549.11,1246.91a154.22,154.22,0,0,1,30.28,86.47c0,1.61,2.55,1.62,2.5,0a156.48,156.48,0,0,0-30.62-87.74c-1-1.27-3.12,0-2.16,1.27Z"/><path class="cls-4" d="M1598.28,1195.92c18.87-2.3,38.72-6.57,52.4-19.77s17.66-38,3.51-50.68c-10-9-25.92-9-37.51-2.27s-19.15,18.94-23,31.77-4.43,26.37-5,39.75"/><path class="cls-3" d="M1598.28,1197.17c16.8-2.09,34.42-5.45,48.26-15.86,11.16-8.4,18.34-21.77,17.73-35.93-.6-13.84-9.8-25.21-23.63-27.67-15.26-2.71-29.63,5.09-38.54,17.19-12.67,17.21-13.81,39.26-14.65,59.82-.07,1.61,2.43,1.61,2.5,0,.67-16.41,1.37-33.4,8.4-48.55,6.37-13.73,18.36-25.45,34.11-26.42,14.82-.92,27.64,8.63,29.18,23.69,1.34,13-4.75,26.24-14.78,34.44-13.61,11.13-31.58,14.67-48.58,16.79-1.57.2-1.59,2.7,0,2.5Z"/><path class="cls-5" d="M1596.42,1210c8.8.91,14.58,12.3,10.1,19.94s-17.24,8.16-22.33.92-.27-19.07,8.43-20.7"/><path class="cls-3" d="M1596.09,1211.17c13.61,2.06,14.28,22.85-.5,23.51-6.2.27-11.88-3.66-12.21-10.18a12.89,12.89,0,0,1,9.57-13.18c1.56-.37.9-2.78-.67-2.41-7.12,1.7-11.93,8.84-11.37,16.11.58,7.61,7.31,12.44,14.68,12.16,7.13-.28,13.46-5.3,13.71-12.72s-5.12-14.58-12.55-15.7c-1.57-.24-2.25,2.17-.66,2.41Z"/><path class="cls-3" d="M1599.31,1234.65c15,6.91,29.88,21.39,25.13,39.38a1.25,1.25,0,0,0,2.41.66c5-19.08-10.21-34.78-26.27-42.2-1.45-.67-2.73,1.48-1.27,2.16Z"/><path class="cls-3" d="M1610.32,1231.54c3.52-3.1,15.55,12.29,17.47,15.09a48.77,48.77,0,0,1,8.3,21.31c.2,1.57,2.71,1.59,2.5,0-2.19-16.92-12.8-30.6-26.57-40.09a1.29,1.29,0,0,0-1.52.2l-2,1.72c-1.21,1.07.56,2.83,1.77,1.77Z"/><path class="cls-3" d="M1648,1181.74c15.56,8.73,25.91,24.17,29.34,41.55a1.27,1.27,0,0,0,1.54.87l1.25-.4c1.53-.48.88-2.9-.66-2.41l-1.26.4,1.54.87c-3.55-18-14.41-34-30.49-43-1.4-.79-2.66,1.37-1.26,2.15Z"/><path class="cls-3" d="M1662.43,1166.43c14.65,10.69,25.09,26.14,28.37,44.07.29,1.58,2.7.91,2.41-.66-3.4-18.6-14.36-34.51-29.52-45.57-1.3-1-2.55,1.22-1.26,2.16Z"/><path class="cls-3" d="M1604,1132.35a58.59,58.59,0,0,0-53.76-29.61c-1.6.09-1.61,2.59,0,2.5a56.12,56.12,0,0,1,51.61,28.37c.78,1.41,2.94.15,2.15-1.26Z"/><path class="cls-3" d="M1542.33,1122.16a86.58,86.58,0,0,1,53.41,30.53c1,1.24,2.78-.54,1.77-1.77a88.57,88.57,0,0,0-54.52-31.17c-1.57-.25-2.25,2.16-.66,2.41Z"/><path class="cls-3" d="M1597.25,1171.25A314.34,314.34,0,0,0,1541,1139c-1.46-.66-2.73,1.5-1.27,2.15a314.13,314.13,0,0,1,56.28,32.3c1.3.95,2.55-1.22,1.26-2.16Z"/><path class="cls-3" d="M1517.54,1164.37l-2.1-4.09-1.71,1.71,65.89,50.7c1.27,1,2.52-1.19,1.26-2.16l-65.89-50.7c-1.08-.82-2.23.72-1.71,1.71l2.1,4.09c.74,1.43,2.9.17,2.16-1.26Z"/><path class="cls-3" d="M2039.57,941.68a1.25,1.25,0,0,0,0-2.5,1.25,1.25,0,0,0,0,2.5Z"/><path class="cls-3" d="M1159.56,655.83l10-3.46c1.52-.53.87-2.94-.66-2.41l-10,3.46c-1.51.52-.86,2.94.66,2.41Z"/><path class="cls-6" d="M1561.11,1172.06a280,280,0,0,0-53.32,32.41c-11.11,8.59-21.86,18.39-27.8,31.11s-6.1,29,2.83,39.83c12.09,14.65,36.49,13.54,51.42,1.8s22-30.88,25.61-49.54,4.41-37.91,10.18-56"/><path class="cls-3" d="M1560.48,1171c-21.82,10.21-42.88,23-61.15,38.77-15.15,13.07-28.42,31.63-24,52.71,3.81,18,21,27,38.4,24.58,19.53-2.69,33-17.76,40.32-35.2,10.68-25.4,9.07-53.74,17.14-79.85.48-1.54-1.93-2.2-2.41-.67-6.41,20.73-6.63,42.61-11.83,63.59-4.48,18.09-13.5,37.78-31.33,46.09-16.69,7.77-39.87,4.25-46.68-14.93-7.32-20.63,6-40.36,20.89-53.48,18.29-16.17,39.81-29.13,61.87-39.45,1.46-.68.19-2.84-1.26-2.16Z"/><path class="cls-3" d="M1504,1201.81a26.52,26.52,0,0,0-17.39-10.08c-1.57-.22-2.25,2.19-.66,2.41a24.61,24.61,0,0,1,16.28,9.43c1,1.27,2.74-.51,1.77-1.76Z"/><line class="cls-7" x1="2088.56" y1="704.99" x2="2090.11" y2="704.66"/><line class="cls-7" x1="2192.14" y1="723.83" x2="2192.14" y2="723.83"/><line class="cls-7" x1="2086.24" y1="710.86" x2="2086.24" y2="710.86"/><line class="cls-7" x1="2087.82" y1="706.46" x2="2093.5" y2="701.02"/><path class="cls-4" d="M2089.78,702.15c15.28-18.46,34.81-33,55.61-44.92s42.92-21.26,65-30.58"/><path class="cls-3" d="M2090.66,703c31.21-37.27,76.62-56.83,120.35-75.3,1.48-.63.2-2.78-1.26-2.16-43.92,18.56-89.51,38.26-120.85,75.69-1,1.23.73,3,1.76,1.77Z"/><path class="cls-1" d="M3863.36,1575.54v61.27c0,3.21,5,3.22,5,0v-61.27c0-3.22-5-3.23-5,0Z"/><path class="cls-2" d="M4404,277.81c-5.74,8.94,4.9,21.12,15.51,20.76s19.28-8.34,26.4-16.21a282.4,282.4,0,0,0,69.61-147.93c.85-5.82,1.49-11.88-.29-17.5s-6.6-10.66-12.48-10.88c-6.64-.25-11.89,5.31-16,10.5a453.83,453.83,0,0,0-83.63,164.9"/><path class="cls-3" d="M4403,277.18c-5.58,9.93,4,21.15,14.05,22.49,15.1,2,27.27-13.17,35.83-23.29a284.24,284.24,0,0,0,49.37-84.67A280,280,0,0,0,4515.45,143c2.08-11.81,6.09-31.41-8.45-37.24-13.75-5.52-24.77,14.32-31.33,23.17a452.66,452.66,0,0,0-28.82,44,458.3,458.3,0,0,0-44.94,108.28,1.25,1.25,0,0,0,2.41.66,454.32,454.32,0,0,1,80.1-160.29c4.43-5.66,10.22-14.55,18.37-14.19,9.48.42,12.59,11.48,12.33,19.19-.49,14.68-4.58,30-8.6,44.07A282.62,282.62,0,0,1,4470.29,249c-8.84,13.31-18.71,26.62-30.27,37.7-6,5.79-15,12.37-23.93,10.27-7.76-1.83-15.46-10.54-11-18.54a1.25,1.25,0,0,0-2.16-1.26Z"/><path class="cls-3" d="M4512.45,154.79c24.47,46.47,29.19,100.57,21.31,151.92-8.08,52.77-29.52,102.32-54.91,148.91-14.79,27.12-31,53.44-47.18,79.73-.85,1.37,1.31,2.63,2.15,1.26,56.1-91,116.09-190.95,104.6-302.39-2.9-28.15-10.61-55.61-23.81-80.69-.75-1.42-2.91-.16-2.16,1.26Z"/><path class="cls-3" d="M4433.06,536.24q-45.71,87.85-85.46,178.63-19.44,44.42-37.41,89.46c-12.07,30.25-24.43,60.62-34,91.78-10.33,33.73-16.48,69.22-9.85,104.3.29,1.58,2.7.91,2.41-.67-6.06-32.07-1.19-64.65,7.7-95.72,8.78-30.7,20.86-60.47,32.58-90.14q35.81-90.61,77.59-178.71,23.37-49.27,48.56-97.67c.74-1.42-1.42-2.69-2.16-1.26Z"/><path class="cls-3" d="M4406.21,281.78c-49.72,48-59.1,120.61-96.5,176.53-10.89,16.27-24.15,30.85-40.44,41.85-1.32.89-.07,3.06,1.26,2.15,57.95-39.1,71.24-112.87,102.32-170.83,9.42-17.56,20.74-34.05,35.13-47.93,1.16-1.12-.61-2.88-1.77-1.77Z"/><path class="cls-3" d="M4273.75,498.26c-45.9,68.57-83.37,142.26-118.39,216.84-36.7,78.14-72,156.94-107.92,235.46q-31.05,67.94-62.08,135.86c-.67,1.45,1.49,2.72,2.16,1.26q55-120.47,110.08-240.92c34.82-76.2,68.73-153,107.65-227.2,21.57-41.14,44.81-81.42,70.66-120,.9-1.35-1.27-2.6-2.16-1.27Z"/><path class="cls-3" d="M3992.1,659.79a65.81,65.81,0,0,1,48.08-2.16c16.68,5.64,28.9,17.81,37.6,32.84,9.19,15.89,15.76,33.57,21.46,51a380.26,380.26,0,0,1,13.58,55.46c.26,1.58,2.67.91,2.41-.67A373.86,373.86,0,0,0,4087.41,704c-5.78-12.79-12.78-25.48-23.23-35.08a66.35,66.35,0,0,0-32.64-16.1,67.85,67.85,0,0,0-40.7,4.83c-1.46.66-.19,2.82,1.26,2.16Z"/><path class="cls-2" d="M3979.11,665.43a154.57,154.57,0,0,0-5.4,50.05c.94,16.71,4.59,33.13,8.22,49.47,1.19,5.34,3.4,11.73,8.79,12.69,4,.7,7.86-2.22,9.58-5.85s1.79-7.81,1.75-11.83a420.19,420.19,0,0,0-11.8-95.21"/><path class="cls-3" d="M3977.9,665.09c-9.11,33.61-6.09,69.45,3.45,102.71,1.21,4.21,3.33,9.2,7.85,10.73s9.14-1.12,11.53-4.93c3.94-6.28,2.61-15.29,2.4-22.29q-.39-13.45-1.65-26.87a429.33,429.33,0,0,0-10-60c-.37-1.56-2.79-.9-2.41.67a424.35,424.35,0,0,1,9.85,58.4q1.28,13.39,1.72,26.86c.15,4.88.54,9.94.06,14.81-.52,5.35-4.59,14.34-11.59,10.59-3.46-1.85-4.74-6.35-5.65-9.89-1.23-4.77-2.17-9.64-3.18-14.46a275,275,0,0,1-4.67-28.23,157.47,157.47,0,0,1,4.73-57.41,1.25,1.25,0,0,0-2.41-.67Z"/><path class="cls-3" d="M3994.31,783.5q-12.69,122.06-17.65,244.75-1.39,34.61-2.16,69.24a1.25,1.25,0,0,0,2.5,0q2.74-122.68,13.25-245,3-34.51,6.56-69c.16-1.6-2.34-1.59-2.5,0Z"/><path class="cls-3" d="M4267.66,987l168-155.38c1.18-1.09-.59-2.86-1.77-1.77l-168,155.39c-1.18,1.09.59,2.85,1.77,1.76Z"/><path class="cls-3" d="M4577.65,731A1359.21,1359.21,0,0,1,4759,570.1q27.52-20.31,56.05-39.23c1.34-.88.08-3-1.26-2.16A1361.84,1361.84,0,0,0,4624.69,680q-25,24-48.81,49.22c-1.1,1.17.66,2.94,1.77,1.77Z"/><path class="cls-2" d="M4956.88,473.59c2.11-7.62,4.24-15.38,4-23.27s-3.32-16.1-9.74-20.7c-11.47-8.23-27.42-2-39.57,5.16a316.33,316.33,0,0,0-81.24,68.87c-3.86,4.6-8.47,9.14-11.41,14.42s-.52,8.61.64,14.1c1,4.91-1.25,9.62-.51,14.61a21.66,21.66,0,0,0,8.07,14c8.53,6.45,20.58,6.49,30.62,2.81s18.52-10.57,26.8-17.34c28.27-23.1,57-46.75,76.72-77.5"/><path class="cls-3" d="M4958.09,473.92c3.59-13,7.3-28.33-1.29-40.27-7.69-10.69-21.19-10.55-32.49-6.43-14.47,5.27-27.77,15-40.07,24.12a319.32,319.32,0,0,0-36.31,31.22q-9,9-17.3,18.76c-4.6,5.39-10.93,11-13.57,17.69-2.39,6.07,1.78,11.83,1.37,18-.44,6.67-1.31,12,2.2,18.13,6.27,10.94,19.95,13.6,31.49,11.26,14.24-2.88,25.67-13.11,36.57-22,27.18-22.25,54.35-45.29,73.61-75.05.88-1.36-1.28-2.61-2.16-1.26-14.72,22.74-34.23,41.65-54.73,59.16-10.48,8.95-21,18.19-32.21,26.26-10.71,7.71-24.3,14.2-37.74,10.06-6.94-2.14-12.56-7.06-14.61-14.18-1.83-6.38,1.06-12.68-.51-19.12-.71-2.92-2.11-5.73-1.46-8.82.83-3.92,4.31-7.66,6.79-10.58,4.65-5.5,9.37-11,14.23-16.27a315.74,315.74,0,0,1,64.67-54.1c11.74-7.38,29.07-18.69,43.28-11.38,16.47,8.48,11.73,30,7.83,44.15a1.25,1.25,0,0,0,2.41.67Z"/><path class="cls-3" d="M4949.82,493.1c23,46.58-1.34,98.61-32.55,134.51-15.94,18.33-34.06,34.64-51.78,51.2l-60.85,56.86-68.09,63.63c-1.18,1.1.59,2.87,1.77,1.77l126.76-118.46c35.69-33.35,76.49-67.75,91-116.3,7.32-24.5,7.36-51.24-4.09-74.47-.71-1.45-2.87-.18-2.16,1.26Z"/><path class="cls-3" d="M4754.58,798.15a655.6,655.6,0,0,1,150.35-84.74c1.47-.59.83-3-.67-2.41a657.92,657.92,0,0,0-150.94,85c-1.27,1,0,3.12,1.26,2.16Z"/><path class="cls-2" d="M5007.07,646.9c13.34-10.9,32.42-15,49.58-10.6a82.87,82.87,0,0,1-28.59,68.59"/><path class="cls-3" d="M5008,647.78A55.73,55.73,0,0,1,5038.33,636a58,58,0,0,1,8,0c2,.13,6.93-.15,8.41,1.19,2.35,2.13.75,10.76.42,13.76a82.89,82.89,0,0,1-28,53.12c-1.21,1.06.56,2.82,1.77,1.77a84.89,84.89,0,0,0,29-69.48,1.28,1.28,0,0,0-.91-1.21A59.43,59.43,0,0,0,5006.18,646c-1.26,1,.52,2.75,1.77,1.76Z"/><path class="cls-2" d="M4904.08,714.73c-9.6,17.44,3.88,40.81,22.74,47.21s39.81-.07,57-10.07a148.2,148.2,0,0,0,61.34-69.3"/><path class="cls-3" d="M4903,714.1c-5.45,10.51-3.63,22.63,2.65,32.38a41.72,41.72,0,0,0,30.19,18.81c30.86,4,61.81-17.45,81.94-38.8a150.35,150.35,0,0,0,28.49-43.29c.64-1.46-1.52-2.74-2.16-1.26A148.11,148.11,0,0,1,4993.78,744c-21.75,15.31-57.14,30.19-79.9,8.52-9.9-9.43-15.34-24.4-8.72-37.18.74-1.43-1.42-2.69-2.16-1.26Z"/><path class="cls-3" d="M5030.1,704.89c4.56,45.54-18.75,88.26-50.13,119.61s-70.17,53.91-107.45,77.16c-70.6,44-142.36,87.21-205.79,141.41-35,29.93-67.16,63.29-94,100.83-.94,1.31,1.23,2.56,2.16,1.26,49.7-69.54,117.17-123.32,187.6-170.6,35.13-23.59,71.18-45.77,107.09-68.14,36.91-23,75.36-45.25,107.13-75.28,34.3-32.41,60.76-77.55,55.88-126.25-.16-1.58-2.66-1.6-2.5,0Z"/><path class="cls-3" d="M4146.66,1396.58c5.05-73.21,69.45-121.82,120.5-165.9l49.67-42.89c1.22-1.06-.56-2.82-1.77-1.77-29.85,25.78-60.07,51.19-89.48,77.47-25.94,23.17-50.85,48.58-66.49,80a140.92,140.92,0,0,0-14.93,53c-.11,1.6,2.39,1.6,2.5,0Z"/><path class="cls-3" d="M4604.77,871.88c-51.08,6.11-88.89,44.24-119.48,82.54-19.19,24-37.35,48.92-55.91,73.45l-62.06,82L4298,1201.48c-1,1.28,1.2,2.53,2.16,1.26l119.3-157.68c19.48-25.74,38.79-51.61,58.45-77.21,15.35-20,31.51-39.61,50.47-56.31,21.67-19.09,47.32-33.69,76.36-37.16,1.58-.19,1.6-2.69,0-2.5Z"/><path class="cls-3" d="M4606,867.32l170.29-83c1.45-.71.18-2.86-1.26-2.16l-170.29,83c-1.44.7-.18,2.86,1.26,2.16Z"/><path class="cls-3" d="M4262,1002.28c-43.94,33.42-88.1,66.58-131.81,100.31-17.76,13.69-35.34,28.08-49.4,45.69a134.38,134.38,0,0,0-27.4,61.07c-4.83,27.18-3.15,55-1.35,82.39.1,1.6,2.6,1.61,2.5,0-3.13-47.71-4.85-97.88,25.25-138.11,13.35-17.84,30.55-32.41,48-46.06,20.84-16.27,42.05-32.08,63.1-48.09l72.36-55c1.26-1,0-3.14-1.26-2.16Z"/><path class="cls-3" d="M4246,1534.29q67.48-83.24,135-166.46c41.86-51.42,84.37-102.45,130.55-150.09a1070.74,1070.74,0,0,1,81.43-76.12c1.24-1-.54-2.8-1.77-1.77-50.59,42.34-96.36,90-139.64,139.73-44.71,51.32-87.1,104.65-130,157.51l-77.37,95.44c-1,1.24.75,3,1.77,1.76Z"/><path class="cls-3" d="M4578.83,1137.11,4565.42,1155c-1,1.29,1.2,2.54,2.16,1.26l13.41-17.86c1-1.29-1.2-2.53-2.16-1.26Z"/><path class="cls-3" d="M4579.6,1159.86A873.73,873.73,0,0,1,4755,1033.72c1.41-.77.15-2.93-1.27-2.15a876.25,876.25,0,0,0-175.88,126.52c-1.18,1.1.59,2.87,1.77,1.77Z"/><path class="cls-2" d="M4757.25,1031.2c-6.67,15,4.46,33.63,20,38.86s33-.41,46.2-10.2,23-23.29,33.18-36.13,21.41-25.56,36.13-32.8"/><path class="cls-3" d="M4756.05,1030.87c-4.09,10-1.35,20.93,5.2,29.18,7.27,9.16,18.3,13.59,29.89,13.22,29.56-.93,48.64-26.22,65.33-47.33,10.45-13.21,21.67-26.18,36.93-33.93,1.44-.73.17-2.89-1.26-2.16-30.19,15.34-42.83,49.29-69.31,68.93-12.87,9.55-30.82,15.78-46.49,9.62-14.08-5.54-23.89-22.23-17.88-36.87.61-1.48-1.81-2.13-2.41-.66Z"/><path class="cls-2" d="M4857.57,947.7c11-5,25.22-1.45,32.49,8.18s6.84,24.31-1,33.49"/><path class="cls-3" d="M4858.2,948.78c10.21-4.34,22.87-1.66,30.11,6.9,7.84,9.26,7.31,23.54-.14,32.8-1,1.25.76,3,1.77,1.77,8-10,9-24.88,1-35.26s-22.32-13.33-34-8.37c-1.48.63-.2,2.78,1.26,2.16Z"/><path class="cls-4" d="M4758.31,1037.19a172.81,172.81,0,0,1,96.73-84.7"/><path class="cls-3" d="M4759.39,1037.82a172.55,172.55,0,0,1,96-84.13c1.51-.53.86-2.94-.67-2.41a175.11,175.11,0,0,0-97.47,85.28c-.73,1.43,1.43,2.7,2.16,1.26Z"/><path class="cls-3" d="M4874.19,1015.34c14.65,68.86-47.19,122.1-90.43,165.45L4631,1333.89,4545.17,1420a1.25,1.25,0,0,0,1.77,1.77l156.94-157.33,78.83-79c23.32-23.38,48.2-46.09,67.61-73,20.23-28,33.69-62.92,26.28-97.74-.34-1.57-2.75-.91-2.41.66Z"/><path class="cls-3" d="M4563.16,1400.12c-61.19,65.16-103.2,147.67-120.43,235.36a471.81,471.81,0,0,0-8.55,74.57c-.06,1.61,2.44,1.61,2.5,0,3.08-88.63,31.75-175.86,81.3-249.38a467.5,467.5,0,0,1,47-58.78c1.1-1.17-.67-3-1.77-1.77Z"/><path class="cls-3" d="M4445.51,1671.94q-48.69,135.16-102.81,268.27-27.55,67.74-56.51,134.91c-16.28,37.75-32.2,75.89-52.13,111.9-21.48,38.81-48.37,75.24-85,100.92-1.31.92-.06,3.09,1.26,2.16,66-46.23,98.87-123.45,129.92-194.89q57.9-133.24,110.31-268.79,29.59-76.58,57.41-153.82c.54-1.51-1.87-2.16-2.41-.66Z"/><path class="cls-3" d="M4169.83,2268.21c-17.78,30.58-39.44,58.86-61.36,86.56-26.36,33.31-53.72,65.81-80.64,98.67-54.35,66.36-109.71,134.49-148.22,211.61-17.75,35.52-32,73.92-34.33,113.89-.09,1.61,2.41,1.61,2.5,0,2.07-36,14.06-70.7,29.33-103,17.62-37.34,39.94-72.35,63.72-106,50.23-71.11,107.9-136.46,162.26-204.36,24.58-30.7,49.09-62,68.9-96.05a1.25,1.25,0,0,0-2.16-1.26Z"/><path class="cls-3" d="M3915,1513.7a1562.31,1562.31,0,0,0,52.1-352.32q1.62-50.1,0-100.22c-.05-1.6-2.55-1.61-2.5,0a1558.76,1558.76,0,0,1-29.24,354.28q-9.81,49.15-22.77,97.59a1.25,1.25,0,0,0,2.41.67Z"/><path class="cls-3" d="M3879.23,1692c2.35-71.07,10.71-141.9,21.86-212.09s25.29-140.21,41.84-209.47q12.15-50.84,26.27-101.19a1.25,1.25,0,0,0-2.41-.66c-17.79,63.09-33.05,126.91-46.26,191.12-14.63,71.11-26.76,142.82-34.91,215-4.4,39-7.59,78.1-8.89,117.31-.06,1.61,2.44,1.61,2.5,0Z"/><path class="cls-3" d="M3884.7,1692.56l0-.08-2.41-.66c-10.12,43.46-21.61,86.64-32.41,129.93q-28.79,115.37-57.56,230.74c-13,52-25,104.44-39,156.22-9.25,34.22-25.43,66.24-44,96.28-42.23,68.24-96.71,128.06-147.78,189.61-47.56,57.3-96.84,117.54-124.07,187.69q-4.51,11.64-8,23.63a1.25,1.25,0,0,0,2.41.66c21.06-72.13,69.39-134.2,116.12-191.58,50.63-62.18,105.33-121.52,150.19-188.17,20-29.71,38-61.1,50.36-94.81,7.23-19.8,11.7-40.44,16.8-60.86q9.93-39.82,19.87-79.66,30.32-121.55,60.64-243.08,19.13-76.67,38.25-153.34c.22-.86.45-1.73.65-2.6a1.25,1.25,0,0,0-2.41-.66l0,.08a1.25,1.25,0,0,0,2.41.66Z"/><path class="cls-3" d="M4413.2,1325.35a1.25,1.25,0,0,0,0-2.5,1.25,1.25,0,0,0,0,2.5Z"/><path class="cls-3" d="M4431.22,834A1214,1214,0,0,1,4582,724.45c1.37-.84.12-3-1.26-2.16a1217.91,1217.91,0,0,0-151.27,109.94c-1.23,1,.55,2.81,1.76,1.77Z"/><path class="cls-3" d="M4339.92,1158.92l67.63,55.73c1.23,1,3-.74,1.76-1.76l-67.63-55.74c-1.23-1-3,.75-1.76,1.77Z"/><path class="cls-3" d="M4313.16,1191.94c7.25-.14,15,2.64,18.65,9.3.77,1.41,2.93.15,2.16-1.26-4-7.41-12.71-10.69-20.81-10.54a1.25,1.25,0,0,0,0,2.5Z"/><path class="cls-3" d="M4383.68,1250.54l-3.52-3.64-1.77,1.77c19.93,20.47,33.09,46.84,35.66,75.43.15,1.59,2.65,1.6,2.5,0-2.63-29.27-16-56.23-36.39-77.2-1.13-1.15-2.89.61-1.77,1.77l3.52,3.63c1.12,1.16,2.89-.61,1.77-1.76Z"/><path class="cls-3" d="M4367.45,1254.47a153.33,153.33,0,0,1,30.12,86c.05,1.6,2.55,1.61,2.5,0a155.68,155.68,0,0,0-30.46-87.28c-.95-1.28-3.12,0-2.16,1.26Z"/><path class="cls-4" d="M4416.37,1203.75c18.77-2.28,38.51-6.53,52.12-19.66s17.56-37.78,3.49-50.41c-9.91-8.91-25.78-8.94-37.31-2.26s-19.05,18.84-22.89,31.6-4.4,26.23-4.95,39.54"/><path class="cls-3" d="M4416.37,1205c16.71-2.08,34.23-5.42,48-15.78,11.1-8.35,18.25-21.65,17.64-35.73-.59-13.78-9.75-25.09-23.51-27.54-15.18-2.69-29.48,5.07-38.34,17.11-12.6,17.11-13.74,39-14.58,59.5-.06,1.61,2.44,1.61,2.5,0,.67-16.32,1.37-33.22,8.36-48.29,6.33-13.65,18.26-25.31,33.92-26.28,14.74-.91,27.49,8.59,29,23.57,1.33,13-4.72,26.09-14.7,34.25-13.53,11.07-31.4,14.59-48.31,16.69-1.58.2-1.6,2.7,0,2.5Z"/><path class="cls-5" d="M4414.51,1217.72c8.76.9,14.5,12.23,10.05,19.83s-17.14,8.12-22.21.92-.27-19,8.38-20.59"/><path class="cls-3" d="M4414.18,1218.93c13.54,2,14.2,22.71-.49,23.37-6.17.27-11.82-3.64-12.13-10.12a12.79,12.79,0,0,1,9.5-13.1c1.57-.37.91-2.78-.66-2.41-7.09,1.69-11.88,8.8-11.32,16,.58,7.57,7.28,12.38,14.61,12.1,7.1-.28,13.39-5.27,13.65-12.66s-5.1-14.5-12.49-15.62c-1.58-.24-2.26,2.17-.67,2.41Z"/><path class="cls-3" d="M4417.39,1242.28c14.9,6.88,29.71,21.27,25,39.16a1.25,1.25,0,0,0,2.41.67c5-19-10.16-34.61-26.14-42-1.45-.67-2.72,1.49-1.26,2.16Z"/><path class="cls-3" d="M4428.34,1239.19c3.5-3.08,15.47,12.23,17.37,15a48.57,48.57,0,0,1,8.26,21.2c.2,1.57,2.7,1.59,2.5,0-2.18-16.83-12.73-30.44-26.44-39.88a1.26,1.26,0,0,0-1.51.2l-1.94,1.71c-1.21,1.07.56,2.83,1.76,1.77Z"/><path class="cls-3" d="M4465.82,1189.66c15.47,8.68,25.77,24,29.18,41.32a1.26,1.26,0,0,0,1.53.87l1.25-.4c1.53-.48.88-2.9-.66-2.41l-1.25.4,1.54.87c-3.53-17.88-14.33-33.84-30.33-42.81a1.25,1.25,0,0,0-1.26,2.16Z"/><path class="cls-3" d="M4480.17,1174.42c14.57,10.64,24.95,26,28.22,43.84.29,1.58,2.7.91,2.41-.66-3.39-18.5-14.28-34.33-29.37-45.33-1.3-1-2.55,1.21-1.26,2.15Z"/><path class="cls-3" d="M4422,1140.52a58.25,58.25,0,0,0-53.48-29.45c-1.6.08-1.61,2.58,0,2.5a55.79,55.79,0,0,1,51.33,28.21,1.25,1.25,0,0,0,2.15-1.26Z"/><path class="cls-3" d="M4360.71,1130.39a86.11,86.11,0,0,1,53.12,30.37c1,1.24,2.78-.54,1.77-1.77a88.18,88.18,0,0,0-54.23-31c-1.57-.25-2.25,2.16-.66,2.41Z"/><path class="cls-3" d="M4415.35,1179.21a312.65,312.65,0,0,0-56-32.12c-1.46-.66-2.73,1.5-1.26,2.16a312,312,0,0,1,56,32.12c1.31,1,2.56-1.22,1.27-2.16Z"/><path class="cls-3" d="M4336.06,1172.36l-2.09-4.06-1.71,1.71,65.54,50.43c1.27,1,2.52-1.19,1.26-2.16l-65.54-50.43c-1.07-.82-2.22.72-1.71,1.71l2.09,4.07c.74,1.43,2.9.16,2.16-1.27Z"/><path class="cls-3" d="M4855.31,950.88a1.25,1.25,0,0,0,0-2.5,1.25,1.25,0,0,0,0,2.5Z"/><path class="cls-3" d="M3980,666.54l10-3.44c1.51-.52.87-2.94-.66-2.41l-10,3.44c-1.51.53-.86,2.94.66,2.41Z"/><path class="cls-6" d="M4379.39,1180a278.64,278.64,0,0,0-53,32.24c-11,8.54-21.74,18.29-27.65,30.94s-6.08,28.84,2.81,39.62c12,14.58,36.29,13.47,51.15,1.79s21.91-30.71,25.47-49.27,4.39-37.72,10.12-55.72"/><path class="cls-3" d="M4378.76,1178.94c-21.69,10.15-42.66,22.87-60.82,38.56-15.07,13-28.28,31.45-23.83,52.44,3.76,17.8,20.62,26.73,37.86,24.5,19.47-2.52,33-17.44,40.32-34.76,10.76-25.34,9.12-53.66,17.18-79.73.47-1.54-1.94-2.2-2.41-.67-6.52,21.12-6.61,43.45-12.15,64.76-4.74,18.21-14.39,37.9-32.94,45.26-16.69,6.63-38.31,2.22-44.49-16.47-6.84-20.68,6.76-40,21.61-53,18.1-15.81,39.22-28.54,60.93-38.7,1.46-.68.19-2.84-1.26-2.16Z"/><path class="cls-3" d="M4322.56,1209.6a26.38,26.38,0,0,0-17.3-10c-1.57-.22-2.25,2.19-.66,2.41a24.48,24.48,0,0,1,16.19,9.38c1,1.27,2.74-.51,1.77-1.77Z"/><line class="cls-7" x1="4904.04" y1="715.44" x2="4905.57" y2="715.11"/><line class="cls-7" x1="5007.07" y1="734.18" x2="5007.07" y2="734.17"/><line class="cls-7" x1="4901.73" y1="721.27" x2="4901.73" y2="721.27"/><line class="cls-7" x1="4903.3" y1="716.9" x2="4908.94" y2="711.49"/><path class="cls-4" d="M4905.25,712.61c15.19-18.36,34.62-32.85,55.31-44.68s42.69-21.14,64.64-30.42"/><path class="cls-3" d="M4906.13,713.49c31.05-37.07,76.21-56.52,119.71-74.9,1.47-.62.2-2.78-1.27-2.16-43.68,18.46-89,38.06-120.21,75.3-1,1.22.74,3,1.77,1.76Z"/><path class="cls-1" d="M6696.75,1569.88v61.28c0,3.21,5,3.22,5,0v-61.28c0-3.21-5-3.22-5,0Z"/><path class="cls-2" d="M7237.42,272.16c-5.73,8.94,4.9,21.12,15.52,20.75s19.27-8.33,26.4-16.2A282.48,282.48,0,0,0,7349,128.78c.84-5.82,1.49-11.88-.29-17.5s-6.61-10.66-12.49-10.88c-6.64-.25-11.89,5.31-16,10.5a454,454,0,0,0-83.63,164.9"/><path class="cls-3" d="M7236.34,271.53c-5.57,9.93,4,21.15,14.06,22.49,15.1,2,27.26-13.17,35.83-23.29a284.42,284.42,0,0,0,49.36-84.67,279,279,0,0,0,13.25-48.76c2.07-11.8,6.09-31.4-8.46-37.23-13.75-5.52-24.76,14.32-31.33,23.17a452.56,452.56,0,0,0-28.81,44,457.47,457.47,0,0,0-44.94,108.28,1.25,1.25,0,0,0,2.41.66,454.15,454.15,0,0,1,80.1-160.29c4.42-5.66,10.21-14.55,18.36-14.19,9.49.42,12.59,11.48,12.33,19.19-.49,14.68-4.57,30-8.6,44.07a282.62,282.62,0,0,1-36.23,78.45c-8.83,13.31-18.7,26.62-30.27,37.7-6,5.79-15,12.37-23.92,10.27-7.77-1.83-15.47-10.54-11-18.54a1.25,1.25,0,0,0-2.16-1.26Z"/><path class="cls-3" d="M7345.83,149.14c24.47,46.47,29.19,100.57,21.32,151.92-8.09,52.77-29.52,102.32-54.92,148.91-14.78,27.12-31,53.44-47.18,79.73-.85,1.37,1.31,2.63,2.16,1.26,56.1-91,116.09-191,104.6-302.39-2.91-28.15-10.61-55.61-23.82-80.69-.75-1.42-2.91-.16-2.16,1.26Z"/><path class="cls-3" d="M7266.44,530.59q-45.69,87.85-85.46,178.63-19.44,44.41-37.4,89.46c-12.07,30.25-24.43,60.62-34,91.78-10.32,33.73-16.48,69.22-9.85,104.3.3,1.58,2.71.91,2.41-.67-6.06-32.07-1.18-64.65,7.71-95.72,8.78-30.7,20.85-60.47,32.58-90.14q35.8-90.61,77.58-178.71,23.37-49.29,48.56-97.67c.74-1.42-1.41-2.69-2.16-1.26Z"/><path class="cls-3" d="M7239.59,276.13c-49.71,48-59.09,120.61-96.5,176.53-10.88,16.27-24.15,30.85-40.43,41.85-1.33.89-.08,3.06,1.26,2.15,57.94-39.1,71.24-112.87,102.32-170.83,9.42-17.56,20.74-34.05,35.12-47.93,1.16-1.12-.61-2.89-1.77-1.77Z"/><path class="cls-3" d="M7107.14,492.61c-45.9,68.57-83.37,142.26-118.4,216.84-36.7,78.14-72,156.94-107.92,235.46q-31,67.94-62.08,135.86c-.66,1.45,1.49,2.72,2.16,1.26L6931,841.11c34.82-76.2,68.72-153,107.64-227.2,21.58-41.14,44.82-81.42,70.66-120,.9-1.34-1.26-2.59-2.15-1.26Z"/><path class="cls-3" d="M6825.49,654.14a65.78,65.78,0,0,1,48.07-2.16c16.69,5.64,28.9,17.81,37.6,32.84,9.2,15.89,15.77,33.57,21.47,51a380.23,380.23,0,0,1,13.57,55.46c.27,1.58,2.68.91,2.41-.67a374.26,374.26,0,0,0-27.81-92.26c-5.79-12.79-12.79-25.48-23.24-35.08a66.32,66.32,0,0,0-32.63-16.1,67.84,67.84,0,0,0-40.7,4.83c-1.47.66-.2,2.82,1.26,2.16Z"/><path class="cls-2" d="M6812.49,659.78a154.84,154.84,0,0,0-5.39,50.05c.94,16.71,4.58,33.13,8.21,49.47,1.19,5.34,3.41,11.73,8.8,12.69,4,.7,7.85-2.22,9.58-5.85s1.78-7.81,1.75-11.83a420.77,420.77,0,0,0-11.81-95.21"/><path class="cls-3" d="M6811.29,659.44c-9.12,33.61-6.1,69.45,3.45,102.71,1.21,4.21,3.32,9.2,7.85,10.73s9.13-1.12,11.53-4.93c3.94-6.28,2.61-15.29,2.4-22.29q-.41-13.45-1.66-26.87a429.31,429.31,0,0,0-10-60c-.38-1.56-2.79-.9-2.41.66a424.47,424.47,0,0,1,9.84,58.41q1.29,13.39,1.72,26.86c.16,4.88.55,9.94.07,14.81-.52,5.35-4.6,14.33-11.59,10.59-3.46-1.85-4.75-6.35-5.66-9.89-1.23-4.77-2.16-9.64-3.17-14.46a275.06,275.06,0,0,1-4.68-28.23,157.48,157.48,0,0,1,4.74-57.41,1.25,1.25,0,0,0-2.41-.67Z"/><path class="cls-3" d="M6827.69,777.85Q6815,899.91,6810,1022.6q-1.38,34.61-2.15,69.24a1.25,1.25,0,0,0,2.5,0q2.74-122.68,13.24-245,3-34.51,6.56-69c.17-1.6-2.33-1.59-2.5,0Z"/><path class="cls-3" d="M7101,981.3l168-155.38c1.18-1.09-.59-2.86-1.77-1.77l-168,155.38c-1.19,1.1.58,2.86,1.76,1.77Z"/><path class="cls-3" d="M7411,725.35a1358.5,1358.5,0,0,1,181.35-160.9q27.54-20.31,56.06-39.23c1.33-.89.08-3.05-1.27-2.16a1363,1363,0,0,0-189.11,151.3q-25,24-48.8,49.22c-1.11,1.17.66,2.94,1.77,1.77Z"/><path class="cls-2" d="M7790.27,467.93c2.1-7.61,4.23-15.37,4-23.26s-3.33-16.1-9.75-20.7c-11.46-8.23-27.41-2-39.57,5.16A316.86,316.86,0,0,0,7663.67,498c-3.86,4.6-8.46,9.14-11.4,14.42-3,5.43-.53,8.61.63,14.1,1,4.91-1.24,9.61-.51,14.61a21.68,21.68,0,0,0,8.08,14c8.52,6.45,20.58,6.49,30.61,2.81s18.52-10.57,26.8-17.34c28.27-23.1,57-46.75,76.73-77.5"/><path class="cls-3" d="M7791.47,468.27c3.59-13,7.31-28.33-1.29-40.28-7.68-10.68-21.19-10.54-32.49-6.42-14.46,5.27-27.77,15.05-40.07,24.12a318.36,318.36,0,0,0-36.3,31.22q-9,9-17.31,18.76c-4.6,5.39-10.93,11-13.57,17.69-2.39,6.07,1.79,11.83,1.38,18-.44,6.67-1.32,12,2.2,18.13,6.26,10.94,19.95,13.6,31.48,11.26,14.24-2.88,25.67-13.12,36.58-22,27.18-22.25,54.35-45.29,73.61-75.05.87-1.36-1.29-2.61-2.16-1.26-14.72,22.74-34.23,41.65-54.73,59.16-10.48,8.95-21,18.19-32.22,26.25-10.7,7.72-24.3,14.21-37.74,10.07-6.93-2.14-12.56-7.06-14.6-14.18-1.83-6.39,1.06-12.68-.52-19.12-.71-2.92-2.1-5.73-1.45-8.82.82-3.92,4.31-7.66,6.79-10.59,4.65-5.49,9.37-10.95,14.22-16.26a315.48,315.48,0,0,1,64.68-54.1c11.73-7.38,29.07-18.69,43.27-11.38,16.47,8.47,11.74,30,7.83,44.15a1.25,1.25,0,0,0,2.41.67Z"/><path class="cls-3" d="M7783.2,487.45c23,46.58-1.33,98.61-32.54,134.51-15.94,18.33-34.06,34.64-51.79,51.2L7638,730l-68.09,63.63c-1.17,1.1.6,2.87,1.77,1.77L7698.47,677c35.69-33.35,76.48-67.75,91-116.3,7.32-24.5,7.36-51.24-4.1-74.48-.71-1.44-2.87-.17-2.16,1.27Z"/><path class="cls-3" d="M7588,792.49a655.77,655.77,0,0,1,150.35-84.73c1.48-.59.83-3-.66-2.41a657.83,657.83,0,0,0-150.95,85c-1.27.95,0,3.12,1.26,2.15Z"/><path class="cls-2" d="M7840.45,641.25c13.34-10.9,32.42-15,49.59-10.61a82.89,82.89,0,0,1-28.6,68.6"/><path class="cls-3" d="M7841.33,642.13a55.76,55.76,0,0,1,30.39-11.79,57.87,57.87,0,0,1,8-.05c2,.12,6.94-.15,8.41,1.19,2.36,2.13.76,10.76.43,13.76a82.94,82.94,0,0,1-28,53.12c-1.22,1.06.56,2.82,1.77,1.77a85,85,0,0,0,29-69.49,1.28,1.28,0,0,0-.92-1.2,59.4,59.4,0,0,0-50.8,10.93c-1.26,1,.51,2.75,1.76,1.76Z"/><path class="cls-2" d="M7737.47,709.08c-9.61,17.44,3.88,40.81,22.73,47.21s39.81-.07,57-10.07a148.22,148.22,0,0,0,61.35-69.3"/><path class="cls-3" d="M7736.39,708.45c-5.45,10.51-3.64,22.63,2.64,32.38a41.71,41.71,0,0,0,30.2,18.8c30.85,4,61.8-17.44,81.93-38.79a150.73,150.73,0,0,0,28.5-43.29c.63-1.46-1.52-2.74-2.16-1.26a148.26,148.26,0,0,1-50.33,62.08c-21.76,15.31-57.14,30.19-79.91,8.52-9.89-9.43-15.34-24.4-8.71-37.18.74-1.43-1.42-2.69-2.16-1.26Z"/><path class="cls-3" d="M7863.48,699.24c4.57,45.54-18.75,88.26-50.13,119.61S7743.18,872.76,7705.9,896c-70.6,44-142.35,87.21-205.79,141.41-35,29.93-67.15,63.29-94,100.83-.94,1.31,1.23,2.56,2.16,1.26,49.69-69.54,117.17-123.32,187.59-170.6,35.14-23.59,71.18-45.77,107.1-68.14,36.91-23,75.36-45.25,107.12-75.28,34.31-32.41,60.76-77.55,55.88-126.25-.16-1.58-2.66-1.6-2.5,0Z"/><path class="cls-3" d="M6980,1390.93c5.05-73.21,69.45-121.82,120.5-165.9l49.67-42.89c1.22-1.06-.55-2.82-1.77-1.77-29.85,25.77-60.06,51.19-89.48,77.47-25.93,23.17-50.84,48.58-66.49,80-8.26,16.61-13.65,34.5-14.93,53-.11,1.6,2.39,1.59,2.5,0Z"/><path class="cls-3" d="M7438.15,866.23c-51.07,6.11-88.88,44.24-119.47,82.54-19.2,24-37.36,48.92-55.91,73.45l-62.06,82-69.29,91.58c-1,1.29,1.2,2.53,2.15,1.27l119.31-157.69c19.47-25.74,38.79-51.6,58.45-77.2,15.34-20,31.5-39.61,50.46-56.31,21.67-19.09,47.33-33.69,76.36-37.16,1.58-.19,1.6-2.7,0-2.5Z"/><path class="cls-3" d="M7439.4,861.66l170.29-83c1.44-.71.18-2.86-1.26-2.16l-170.29,83c-1.45.7-.18,2.86,1.26,2.15Z"/><path class="cls-3" d="M7095.33,996.63c-43.94,33.42-88.1,66.58-131.81,100.3-17.75,13.7-35.33,28.09-49.39,45.7a134.39,134.39,0,0,0-27.41,61.07c-4.83,27.18-3.14,55-1.35,82.39.11,1.6,2.61,1.61,2.5,0-3.13-47.71-4.84-97.88,25.26-138.11,13.34-17.84,30.54-32.42,48-46.06,20.83-16.27,42-32.08,63.09-48.09l72.36-55c1.27-1,0-3.14-1.26-2.16Z"/><path class="cls-3" d="M7079.35,1528.64q67.48-83.23,135-166.46c41.87-51.42,84.37-102.45,130.56-150.1a1070.6,1070.6,0,0,1,81.42-76.11c1.24-1-.54-2.8-1.76-1.77-50.6,42.34-96.36,90-139.65,139.72-44.71,51.33-87.09,104.66-129.95,157.52l-77.38,95.44c-1,1.23.76,3,1.77,1.76Z"/><path class="cls-3" d="M7412.21,1131.46l-13.41,17.86c-1,1.29,1.21,2.53,2.16,1.26l13.41-17.86c1-1.29-1.2-2.54-2.16-1.26Z"/><path class="cls-3" d="M7413,1154.21a873.9,873.9,0,0,1,175.38-126.14c1.41-.77.15-2.93-1.26-2.15a875.93,875.93,0,0,0-175.89,126.52c-1.18,1.1.59,2.86,1.77,1.77Z"/><path class="cls-2" d="M7590.64,1025.55c-6.67,15,4.45,33.63,20,38.85s33-.4,46.21-10.19,23-23.29,33.18-36.13,21.41-25.56,36.13-32.8"/><path class="cls-3" d="M7589.43,1025.22c-4.09,10-1.34,20.93,5.2,29.17,7.28,9.17,18.31,13.6,29.89,13.23,29.56-.93,48.65-26.22,65.34-47.33,10.45-13.21,21.67-26.18,36.93-33.93,1.43-.73.17-2.89-1.27-2.16-30.18,15.34-42.82,49.29-69.3,68.93-12.88,9.55-30.82,15.78-46.5,9.62-14.07-5.54-23.89-22.23-17.88-36.87.61-1.49-1.8-2.13-2.41-.66Z"/><path class="cls-2" d="M7691,942.05c11-5,25.22-1.46,32.5,8.17s6.83,24.32-1,33.5"/><path class="cls-3" d="M7691.59,943.13c10.21-4.34,22.86-1.67,30.11,6.89,7.83,9.27,7.3,23.55-.14,32.81-1,1.25.75,3,1.76,1.77,8-10,9-24.88,1-35.26S7702,936,7690.32,941c-1.47.63-.2,2.78,1.27,2.16Z"/><path class="cls-4" d="M7591.69,1031.54a172.84,172.84,0,0,1,96.73-84.7"/><path class="cls-3" d="M7592.77,1032.17a172.62,172.62,0,0,1,96-84.13c1.51-.53.86-2.95-.66-2.41a175.13,175.13,0,0,0-97.48,85.28c-.73,1.43,1.43,2.7,2.16,1.26Z"/><path class="cls-3" d="M7707.57,1009.69c14.65,68.86-47.19,122.1-90.43,165.45l-152.72,153.1-85.86,86.07a1.25,1.25,0,0,0,1.76,1.77l157-157.33,78.82-79c23.32-23.38,48.21-46.09,67.61-73,20.23-28,33.69-62.91,26.28-97.73-.33-1.58-2.74-.91-2.41.66Z"/><path class="cls-3" d="M7396.54,1394.47c-61.19,65.16-103.2,147.67-120.43,235.36a471.81,471.81,0,0,0-8.55,74.57c-.05,1.61,2.45,1.61,2.5,0,3.09-88.63,31.75-175.86,81.31-249.38a468.32,468.32,0,0,1,46.94-58.78c1.1-1.18-.66-3-1.77-1.77Z"/><path class="cls-3" d="M7278.89,1666.29q-48.69,135.15-102.81,268.27-27.56,67.74-56.51,134.91c-16.27,37.75-32.2,75.89-52.13,111.9-21.47,38.8-48.37,75.24-85,100.92-1.31.92-.06,3.09,1.26,2.16,66-46.23,98.87-123.45,129.92-194.89q57.91-133.24,110.31-268.79,29.59-76.57,57.41-153.82c.55-1.51-1.87-2.17-2.41-.66Z"/><path class="cls-3" d="M7003.22,2262.56c-17.79,30.58-39.44,58.86-61.36,86.55-26.37,33.31-53.73,65.82-80.65,98.68-54.35,66.36-109.71,134.49-148.22,211.61-17.74,35.52-32,73.92-34.32,113.89-.1,1.61,2.41,1.61,2.5,0,2.07-35.95,14.05-70.7,29.32-103.05,17.62-37.33,39.95-72.34,63.73-106,50.23-71.11,107.89-136.46,162.25-204.36,24.58-30.71,49.1-62,68.9-96a1.25,1.25,0,0,0-2.15-1.26Z"/><path class="cls-3" d="M6748.35,1508.05a1561.84,1561.84,0,0,0,52.11-352.33q1.62-50.09,0-100.21c-.05-1.61-2.55-1.61-2.5,0a1559.34,1559.34,0,0,1-29.25,354.28q-9.79,49.15-22.77,97.59a1.25,1.25,0,0,0,2.41.67Z"/><path class="cls-3" d="M6712.61,1686.36c2.36-71.07,10.72-141.9,21.86-212.09s25.29-140.21,41.85-209.47q12.15-50.83,26.27-101.19a1.26,1.26,0,0,0-2.42-.66c-17.79,63.09-33.05,126.91-46.25,191.11-14.63,71.12-26.76,142.83-34.91,215-4.4,39-7.6,78.1-8.9,117.31,0,1.61,2.45,1.61,2.5,0Z"/><path class="cls-3" d="M6718.09,1686.91l0-.08-2.41-.66c-10.12,43.46-21.62,86.64-32.42,129.93q-28.78,115.37-57.56,230.73c-13,52.05-25,104.45-39,156.23-9.26,34.22-25.43,66.24-44,96.28-42.22,68.23-96.7,128.06-147.78,189.61-47.55,57.3-96.83,117.53-124.06,187.69q-4.52,11.64-8,23.62a1.25,1.25,0,0,0,2.41.67c21.06-72.13,69.38-134.2,116.11-191.58,50.63-62.18,105.34-121.52,150.2-188.17,20-29.71,38-61.1,50.35-94.81,7.24-19.8,11.71-40.45,16.8-60.86q9.93-39.84,19.87-79.66,30.33-121.55,60.65-243.08l38.25-153.34c.21-.87.44-1.73.65-2.6.36-1.56-2-2.23-2.41-.66l0,.08a1.25,1.25,0,0,0,2.41.66Z"/><path class="cls-3" d="M7246.58,1319.7a1.25,1.25,0,0,0,0-2.5,1.25,1.25,0,0,0,0,2.5Z"/><path class="cls-3" d="M7264.61,828.35A1212.47,1212.47,0,0,1,7415.38,718.8c1.37-.84.11-3-1.26-2.16a1218,1218,0,0,0-151.28,109.94c-1.22,1,.55,2.81,1.77,1.77Z"/><path class="cls-3" d="M7173.3,1153.27l67.63,55.73c1.23,1,3-.74,1.77-1.76l-67.63-55.74c-1.23-1-3,.75-1.77,1.77Z"/><path class="cls-3" d="M7146.55,1186.29c7.25-.14,15,2.64,18.64,9.3.77,1.41,2.93.15,2.16-1.26-4-7.41-12.7-10.69-20.8-10.54a1.25,1.25,0,0,0,0,2.5Z"/><path class="cls-3" d="M7217.06,1244.88l-3.52-3.63-1.77,1.77c19.93,20.47,33.09,46.84,35.67,75.43.14,1.59,2.64,1.6,2.5,0-2.64-29.27-16-56.23-36.4-77.2-1.12-1.15-2.89.61-1.77,1.77l3.53,3.63c1.12,1.16,2.88-.61,1.76-1.77Z"/><path class="cls-3" d="M7200.83,1248.82a153.32,153.32,0,0,1,30.12,86c.06,1.61,2.56,1.62,2.5,0a155.6,155.6,0,0,0-30.46-87.27c-.95-1.28-3.12,0-2.16,1.26Z"/><path class="cls-4" d="M7249.75,1198.1c18.77-2.29,38.52-6.53,52.13-19.66s17.56-37.78,3.49-50.42c-9.91-8.9-25.79-8.93-37.32-2.25s-19,18.84-22.88,31.6-4.41,26.23-4.95,39.54"/><path class="cls-3" d="M7249.75,1199.35c16.71-2.08,34.24-5.42,48-15.78,11.11-8.35,18.26-21.65,17.65-35.73-.6-13.78-9.75-25.09-23.52-27.54-15.18-2.69-29.47,5.07-38.34,17.11-12.6,17.11-13.73,39-14.57,59.5-.07,1.61,2.43,1.61,2.5,0,.67-16.32,1.36-33.22,8.36-48.29,6.33-13.65,18.25-25.31,33.91-26.28,14.74-.91,27.49,8.59,29,23.57,1.33,13-4.72,26.09-14.7,34.25-13.54,11.07-31.41,14.58-48.32,16.69-1.57.2-1.59,2.7,0,2.5Z"/><path class="cls-5" d="M7247.9,1212.07c8.76.9,14.5,12.23,10.05,19.83s-17.15,8.12-22.21.92-.28-19,8.38-20.59"/><path class="cls-3" d="M7247.57,1213.28c13.53,2,14.19,22.71-.5,23.37-6.16.27-11.81-3.64-12.13-10.12a12.81,12.81,0,0,1,9.51-13.1c1.56-.37.9-2.78-.67-2.41-7.09,1.69-11.87,8.8-11.32,16,.58,7.58,7.28,12.39,14.61,12.11,7.1-.28,13.4-5.27,13.65-12.66s-5.1-14.5-12.49-15.63c-1.57-.23-2.25,2.17-.66,2.42Z"/><path class="cls-3" d="M7250.78,1236.63c14.89,6.88,29.71,21.27,25,39.16a1.25,1.25,0,0,0,2.41.67c5-19-10.15-34.61-26.13-42-1.45-.67-2.73,1.49-1.26,2.16Z"/><path class="cls-3" d="M7261.73,1233.54c3.49-3.08,15.46,12.23,17.36,15a48.45,48.45,0,0,1,8.26,21.2c.2,1.57,2.71,1.59,2.5,0-2.18-16.83-12.73-30.44-26.43-39.88a1.27,1.27,0,0,0-1.52.2l-1.94,1.71c-1.21,1.07.56,2.83,1.77,1.77Z"/><path class="cls-3" d="M7299.2,1184c15.47,8.67,25.77,24,29.18,41.32a1.27,1.27,0,0,0,1.54.87l1.25-.4c1.53-.48.87-2.9-.66-2.41l-1.25.4,1.53.87c-3.53-17.88-14.33-33.84-30.33-42.81a1.25,1.25,0,0,0-1.26,2.16Z"/><path class="cls-3" d="M7313.55,1168.77c14.58,10.64,25,26,28.22,43.84.29,1.58,2.7.91,2.41-.66-3.38-18.5-14.28-34.33-29.36-45.34-1.31-.94-2.55,1.22-1.27,2.16Z"/><path class="cls-3" d="M7255.4,1134.87a58.3,58.3,0,0,0-53.49-29.46c-1.6.09-1.61,2.59,0,2.5a55.8,55.8,0,0,1,51.33,28.22,1.25,1.25,0,0,0,2.16-1.26Z"/><path class="cls-3" d="M7194.09,1124.74a86.11,86.11,0,0,1,53.13,30.37c1,1.24,2.78-.54,1.76-1.77a88.13,88.13,0,0,0-54.22-31c-1.58-.25-2.25,2.16-.67,2.41Z"/><path class="cls-3" d="M7248.73,1173.56a311.7,311.7,0,0,0-56-32.12c-1.45-.66-2.72,1.5-1.26,2.15a312.7,312.7,0,0,1,56,32.13c1.3.94,2.55-1.22,1.26-2.16Z"/><path class="cls-3" d="M7169.45,1166.71l-2.1-4.06-1.71,1.71,65.54,50.42c1.28,1,2.53-1.19,1.27-2.15l-65.55-50.43c-1.07-.83-2.22.72-1.71,1.71l2.1,4.06c.74,1.44,2.89.17,2.16-1.26Z"/><path class="cls-3" d="M7688.69,945.22a1.25,1.25,0,0,0,0-2.5,1.25,1.25,0,0,0,0,2.5Z"/><path class="cls-3" d="M6813.37,660.89l10-3.44c1.51-.52.86-2.94-.67-2.41l-10,3.44c-1.51.52-.86,2.94.67,2.41Z"/><path class="cls-6" d="M7212.78,1174.37a278.21,278.21,0,0,0-53,32.24c-11.05,8.54-21.74,18.28-27.65,30.94s-6.07,28.84,2.82,39.62c12,14.58,36.29,13.47,51.14,1.79s21.91-30.71,25.48-49.27,4.38-37.72,10.12-55.72"/><path class="cls-3" d="M7212.15,1173.29c-21.7,10.15-42.67,22.87-60.83,38.56-15.07,13-28.27,31.45-23.83,52.44,3.77,17.8,20.63,26.73,37.87,24.5,19.46-2.52,33-17.44,40.32-34.76,10.75-25.34,9.12-53.66,17.17-79.73.48-1.54-1.93-2.2-2.41-.67-6.52,21.11-6.6,43.44-12.15,64.76-4.73,18.21-14.39,37.9-32.93,45.26-16.7,6.63-38.32,2.22-44.5-16.47-6.84-20.68,6.76-40,21.62-53,18.1-15.81,39.21-28.54,60.93-38.7,1.45-.68.19-2.84-1.26-2.16Z"/><path class="cls-3" d="M7155.94,1204a26.33,26.33,0,0,0-17.29-10c-1.58-.22-2.26,2.19-.67,2.41a24.48,24.48,0,0,1,16.2,9.38c1,1.27,2.74-.51,1.76-1.77Z"/><line class="cls-7" x1="7737.42" y1="709.79" x2="7738.96" y2="709.46"/><line class="cls-7" x1="7840.45" y1="728.53" x2="7840.45" y2="728.52"/><line class="cls-7" x1="7735.11" y1="715.62" x2="7735.11" y2="715.62"/><line class="cls-7" x1="7736.68" y1="711.25" x2="7742.33" y2="705.84"/><path class="cls-4" d="M7738.63,707c15.2-18.36,34.63-32.85,55.31-44.68s42.7-21.14,64.65-30.42"/><path class="cls-3" d="M7739.52,707.84c31-37.07,76.21-56.52,119.7-74.9,1.48-.62.2-2.78-1.26-2.16-43.69,18.46-89,38.06-120.21,75.29-1,1.23.73,3,1.77,1.77Z"/><path class="cls-6" d="M2265.4,639.06a337.39,337.39,0,0,1,39,99.18"/><path class="cls-6" d="M2263.24,640.32a340,340,0,0,1,38.8,98.59c.69,3.14,5.52,1.81,4.82-1.33a344.34,344.34,0,0,0-39.3-99.78c-1.63-2.78-6-.26-4.32,2.52Z"/><path class="cls-6" d="M2315.08,779.79a184.11,184.11,0,0,1,13.6,98.5"/><path class="cls-6" d="M2312.92,781.06a184,184,0,0,1,13.26,97.23c-.42,3.18,4.58,3.15,5,0a188.6,188.6,0,0,0-13.94-99.76c-1.28-2.94-5.59-.4-4.32,2.53Z"/><path class="cls-6" d="M2254.05,869.79a104,104,0,0,0,62.49,35.41"/><path class="cls-6" d="M2252.28,871.56a107.57,107.57,0,0,0,63.6,36.06c3.15.53,4.5-4.29,1.33-4.83A103.21,103.21,0,0,1,2255.82,868c-2.1-2.45-5.62,1.1-3.54,3.53Z"/><path class="cls-6" d="M4964.37,707.38a373.92,373.92,0,0,0,54.44,118.83"/><path class="cls-6" d="M4962,708.05a380.39,380.39,0,0,0,54.69,119.42c1.81,2.63,6.15.14,4.32-2.52a376.28,376.28,0,0,1-54.19-118.23c-.81-3.11-5.63-1.79-4.82,1.33Z"/><path class="cls-6" d="M5050.28,628a335.45,335.45,0,0,1,38.84,98.66"/><path class="cls-6" d="M5048.12,629.28a338.33,338.33,0,0,1,38.59,98.06c.7,3.14,5.52,1.81,4.82-1.33a342.79,342.79,0,0,0-39.09-99.26c-1.63-2.77-6-.26-4.32,2.53Z"/><path class="cls-6" d="M5099.69,768a183.08,183.08,0,0,1,13.54,98"/><path class="cls-6" d="M5097.53,769.26a183,183,0,0,1,13.2,96.72c-.43,3.18,4.58,3.14,5,0a187.66,187.66,0,0,0-13.88-99.24c-1.27-3-5.58-.4-4.32,2.52Z"/><path class="cls-6" d="M5039,857.52a103.48,103.48,0,0,0,62.16,35.22"/><path class="cls-6" d="M5037.22,859.29a107,107,0,0,0,63.26,35.86c3.15.54,4.5-4.28,1.33-4.82a102.62,102.62,0,0,1-61.05-34.58c-2.1-2.44-5.62,1.11-3.54,3.54Z"/><path class="cls-3" d="M10132,110.68a1.25,1.25,0,0,0,0-2.5,1.25,1.25,0,0,0,0,2.5Z"/><path class="cls-6" d="M7812.33,540.89a163.63,163.63,0,0,0,7.28,107.84"/><path class="cls-6" d="M7809.92,540.22A167.86,167.86,0,0,0,7817.46,650c1.25,3,5.56.4,4.31-2.53a162.33,162.33,0,0,1-7-105.92c.85-3.11-4-4.43-4.82-1.33Z"/><path class="cls-6" d="M7832.86,699.1a373.9,373.9,0,0,0,54.43,118.83"/><path class="cls-6" d="M7830.45,699.77a380.15,380.15,0,0,0,54.68,119.42c1.82,2.63,6.15.14,4.32-2.52a376.25,376.25,0,0,1-54.18-118.23c-.82-3.11-5.64-1.8-4.82,1.33Z"/><path class="cls-6" d="M7918.76,619.73a335.17,335.17,0,0,1,38.84,98.66"/><path class="cls-6" d="M7916.6,621a337.94,337.94,0,0,1,38.59,98.07c.7,3.14,5.52,1.81,4.82-1.33a342.51,342.51,0,0,0-39.09-99.26c-1.63-2.77-5.95-.26-4.32,2.52Z"/><path class="cls-6" d="M7968.18,759.72a183.16,183.16,0,0,1,13.53,98"/><path class="cls-6" d="M7966,761a183,183,0,0,1,13.19,96.72c-.42,3.17,4.58,3.14,5,0a187.66,187.66,0,0,0-13.88-99.24c-1.27-3-5.58-.4-4.31,2.52Z"/><path class="cls-6" d="M7907.47,849.24a103.61,103.61,0,0,0,62.16,35.22"/><path class="cls-6" d="M7905.71,851A106.93,106.93,0,0,0,7969,886.87c3.15.54,4.5-4.28,1.33-4.82a102.69,102.69,0,0,1-61.06-34.58c-2.09-2.45-5.62,1.11-3.53,3.54Z"/><path class="cls-1" d="M9525,1571.8v61.27c0,3.22,5,3.22,5,0V1571.8c0-3.22-5-3.22-5,0Z"/><path class="cls-2" d="M10065.62,274.08c-5.73,8.94,4.9,21.11,15.52,20.75s19.27-8.33,26.4-16.21a282.4,282.4,0,0,0,69.61-147.92c.84-5.83,1.49-11.89-.29-17.5s-6.61-10.67-12.49-10.89c-6.64-.24-11.89,5.32-16,10.5a454.14,454.14,0,0,0-83.63,164.9"/><path class="cls-3" d="M10064.54,273.45c-5.57,9.92,4,21.14,14.06,22.48,15.1,2,27.27-13.17,35.83-23.29a284.3,284.3,0,0,0,49.36-84.67,278.9,278.9,0,0,0,13.25-48.75c2.07-11.8,6.09-31.4-8.46-37.24-13.75-5.52-24.76,14.33-31.33,23.17a455.3,455.3,0,0,0-73.75,152.23,1.25,1.25,0,0,0,2.41.67,454.2,454.2,0,0,1,80.1-160.3c4.42-5.66,10.22-14.55,18.36-14.19,9.49.42,12.59,11.48,12.34,19.19-.49,14.68-4.58,30-8.61,44.07a282.81,282.81,0,0,1-36.23,78.46c-8.83,13.3-18.7,26.62-30.27,37.7-6,5.78-15,12.36-23.92,10.26-7.77-1.82-15.47-10.54-11-18.53a1.25,1.25,0,0,0-2.16-1.26Z"/><path class="cls-3" d="M10174,151.06c24.46,46.47,29.18,100.56,21.31,151.92-8.09,52.77-29.52,102.32-54.92,148.91-14.78,27.12-31,53.44-47.18,79.72-.85,1.38,1.32,2.64,2.16,1.27,56.1-91,116.09-190.95,104.6-302.4-2.91-28.14-10.61-55.61-23.82-80.68-.75-1.43-2.9-.17-2.15,1.26Z"/><path class="cls-3" d="M10094.64,532.5q-45.69,87.87-85.46,178.64-19.43,44.42-37.4,89.45c-12.07,30.25-24.43,60.62-34,91.78-10.32,33.73-16.48,69.23-9.85,104.3.3,1.58,2.71.91,2.41-.66-6.06-32.08-1.18-64.66,7.71-95.73,8.78-30.69,20.86-60.47,32.58-90.13q35.81-90.61,77.58-178.72,23.37-49.27,48.56-97.66c.74-1.43-1.41-2.7-2.16-1.27Z"/><path class="cls-3" d="M10067.79,278.05c-49.71,48-59.09,120.61-96.5,176.53-10.88,16.27-24.14,30.85-40.43,41.84-1.33.9-.08,3.06,1.26,2.16,57.94-39.11,71.24-112.87,102.32-170.83,9.42-17.56,20.74-34.06,35.12-47.93,1.16-1.12-.61-2.89-1.77-1.77Z"/><path class="cls-3" d="M9935.34,494.53c-45.9,68.57-83.37,142.25-118.4,216.83-36.7,78.14-72,156.94-107.92,235.47q-31,67.92-62.08,135.85c-.66,1.46,1.49,2.73,2.16,1.26q55-120.45,110.09-240.91c34.82-76.2,68.72-153,107.65-227.21,21.57-41.13,44.81-81.42,70.66-120,.89-1.34-1.27-2.59-2.16-1.26Z"/><path class="cls-3" d="M9653.69,656.05a65.86,65.86,0,0,1,48.08-2.16c16.68,5.64,28.9,17.81,37.59,32.84,9.2,15.9,15.77,33.58,21.47,51a379.78,379.78,0,0,1,13.57,55.45c.27,1.58,2.68.91,2.41-.66A374.14,374.14,0,0,0,9749,700.25c-5.79-12.8-12.79-25.48-23.24-35.09a66.41,66.41,0,0,0-32.63-16.1,68,68,0,0,0-40.7,4.83c-1.47.67-.2,2.82,1.26,2.16Z"/><path class="cls-2" d="M9640.69,661.69a154.84,154.84,0,0,0-5.39,50c.94,16.71,4.58,33.14,8.21,49.47,1.19,5.35,3.41,11.73,8.8,12.69,4,.71,7.85-2.21,9.58-5.85s1.78-7.8,1.75-11.82A420.7,420.7,0,0,0,9651.83,661"/><path class="cls-3" d="M9639.49,661.36c-9.12,33.6-6.09,69.45,3.45,102.7,1.21,4.21,3.32,9.2,7.85,10.73s9.13-1.12,11.53-4.93c3.94-6.27,2.61-15.29,2.4-22.29q-.4-13.46-1.66-26.86a429.45,429.45,0,0,0-10-60c-.38-1.56-2.79-.9-2.41.67a424.33,424.33,0,0,1,9.84,58.4q1.29,13.39,1.72,26.86c.16,4.89.55,9.94.07,14.82-.52,5.34-4.6,14.33-11.59,10.59-3.46-1.85-4.75-6.36-5.66-9.89-1.23-4.77-2.16-9.65-3.17-14.47a274.87,274.87,0,0,1-4.68-28.22A157.75,157.75,0,0,1,9641.9,662a1.25,1.25,0,0,0-2.41-.66Z"/><path class="cls-3" d="M9655.89,779.76q-12.69,122.06-17.65,244.75-1.38,34.62-2.15,69.24a1.25,1.25,0,0,0,2.5,0q2.74-122.68,13.24-245,3-34.5,6.56-69c.17-1.6-2.33-1.59-2.5,0Z"/><path class="cls-3" d="M9929.24,983.22l168-155.38c1.19-1.1-.59-2.86-1.77-1.77l-168,155.38c-1.19,1.09.58,2.86,1.76,1.77Z"/><path class="cls-3" d="M10239.24,727.27a1358,1358,0,0,1,181.36-160.9q27.52-20.32,56-39.23c1.33-.89.08-3.06-1.27-2.16a1363.68,1363.68,0,0,0-189.11,151.29q-25,24-48.8,49.23c-1.1,1.17.66,2.94,1.77,1.77Z"/><path class="cls-2" d="M10618.47,469.85c2.11-7.61,4.23-15.37,4-23.27s-3.33-16.09-9.75-20.7c-11.46-8.22-27.41-2-39.57,5.16a317,317,0,0,0-81.23,68.87c-3.87,4.61-8.47,9.15-11.41,14.43s-.53,8.61.63,14.09c1,4.92-1.24,9.62-.51,14.61a21.63,21.63,0,0,0,8.08,14c8.52,6.46,20.58,6.5,30.61,2.81s18.52-10.57,26.8-17.33c28.28-23.11,57-46.75,76.73-77.51"/><path class="cls-3" d="M10619.67,470.18c3.59-13,7.31-28.32-1.28-40.27-7.69-10.69-21.2-10.55-32.5-6.43-14.46,5.28-27.77,15-40.07,24.12a319.36,319.36,0,0,0-36.3,31.22q-9,9-17.31,18.77c-4.59,5.39-10.93,11-13.57,17.68-2.39,6.08,1.79,11.83,1.38,18-.44,6.68-1.32,12,2.2,18.14,6.26,10.93,20,13.6,31.48,11.26,14.24-2.89,25.67-13.12,36.58-22.05,27.18-22.24,54.35-45.29,73.61-75.05.87-1.35-1.29-2.61-2.16-1.26-14.72,22.75-34.23,41.65-54.73,59.16-10.48,9-21,18.2-32.22,26.26-10.7,7.72-24.3,14.2-37.74,10.06-6.93-2.14-12.56-7-14.6-14.18-1.83-6.38,1.06-12.67-.51-19.11-.72-2.92-2.11-5.73-1.46-8.83.82-3.92,4.31-7.65,6.79-10.58,4.65-5.49,9.37-11,14.22-16.27a315.43,315.43,0,0,1,64.68-54.09c11.73-7.39,29.07-18.7,43.28-11.38,16.46,8.47,11.73,30,7.82,44.15a1.25,1.25,0,0,0,2.41.66Z"/><path class="cls-3" d="M10611.4,489.36c23,46.59-1.33,98.62-32.54,134.51-15.94,18.34-34.06,34.65-51.79,51.21l-60.84,56.86-68.1,63.63c-1.17,1.1.6,2.86,1.77,1.76l126.77-118.45c35.69-33.35,76.48-67.76,91-116.31,7.32-24.49,7.36-51.23-4.1-74.47-.71-1.44-2.86-.18-2.16,1.26Z"/><path class="cls-3" d="M10416.16,794.41a655.77,655.77,0,0,1,150.35-84.73c1.48-.6.83-3-.66-2.42a658.2,658.2,0,0,0-151,85c-1.27,1,0,3.13,1.26,2.16Z"/><path class="cls-2" d="M10668.65,643.16c13.34-10.89,32.42-15,49.59-10.6a82.9,82.9,0,0,1-28.6,68.6"/><path class="cls-3" d="M10669.53,644.05a55.77,55.77,0,0,1,30.39-11.8,57.87,57.87,0,0,1,8,0c2,.13,6.94-.15,8.41,1.19,2.36,2.14.76,10.77.43,13.77a83,83,0,0,1-28,53.12c-1.21,1.05.56,2.82,1.77,1.76a84.94,84.94,0,0,0,29-69.48,1.3,1.3,0,0,0-.92-1.21,59.4,59.4,0,0,0-50.8,10.93c-1.26,1,.52,2.76,1.76,1.77Z"/><path class="cls-2" d="M10565.67,711c-9.61,17.45,3.88,40.82,22.73,47.22s39.81-.08,57-10.08a148.16,148.16,0,0,0,61.34-69.3"/><path class="cls-3" d="M10564.59,710.36c-5.45,10.52-3.64,22.63,2.64,32.39a41.74,41.74,0,0,0,30.2,18.8c30.85,4,61.8-17.45,81.93-38.8a150.38,150.38,0,0,0,28.5-43.29c.63-1.46-1.52-2.73-2.16-1.26a148.35,148.35,0,0,1-50.33,62.09c-21.76,15.31-57.14,30.19-79.91,8.51-9.89-9.42-15.34-24.39-8.71-37.18.74-1.42-1.42-2.69-2.16-1.26Z"/><path class="cls-3" d="M10691.68,701.16c4.57,45.54-18.75,88.26-50.13,119.61s-70.16,53.91-107.45,77.15c-70.59,44-142.35,87.21-205.79,141.41-35,29.94-67.15,63.29-94,100.83-.94,1.31,1.23,2.56,2.16,1.26,49.69-69.53,117.17-123.32,187.59-170.6,35.14-23.59,71.19-45.76,107.1-68.13,36.91-23,75.36-45.26,107.12-75.28,34.31-32.42,60.76-77.56,55.88-126.25-.16-1.59-2.66-1.6-2.5,0Z"/><path class="cls-3" d="M9808.24,1392.84c5.05-73.2,69.45-121.82,120.5-165.9l49.67-42.89c1.22-1-.55-2.81-1.77-1.77-29.85,25.78-60.06,51.2-89.48,77.47-25.93,23.17-50.84,48.58-66.49,80-8.26,16.62-13.65,34.5-14.93,53-.11,1.61,2.39,1.6,2.5,0Z"/><path class="cls-3" d="M10266.36,868.14c-51.08,6.11-88.89,44.25-119.48,82.54-19.19,24-37.36,48.93-55.91,73.45q-31,41-62.06,82-34.65,45.78-69.29,91.58c-1,1.28,1.2,2.53,2.16,1.26l119.3-157.68c19.47-25.74,38.79-51.61,58.45-77.21,15.35-20,31.51-39.6,50.46-56.3,21.67-19.09,47.33-33.7,76.37-37.17,1.57-.19,1.59-2.69,0-2.5Z"/><path class="cls-3" d="M10267.6,863.58l170.29-83c1.45-.7.18-2.86-1.26-2.16l-170.29,83c-1.45.71-.18,2.86,1.26,2.16Z"/><path class="cls-3" d="M9923.53,998.54c-43.94,33.43-88.1,66.59-131.81,100.31-17.75,13.7-35.33,28.09-49.39,45.69a134.49,134.49,0,0,0-27.41,61.07c-4.83,27.19-3.14,55-1.35,82.39.11,1.6,2.61,1.61,2.5,0-3.13-47.71-4.84-97.88,25.26-138.11,13.34-17.84,30.54-32.41,48-46.05,20.83-16.28,42-32.09,63.09-48.09l72.36-55c1.27-1,0-3.13-1.26-2.16Z"/><path class="cls-3" d="M9907.55,1530.56q67.49-83.24,135-166.46c41.87-51.43,84.37-102.46,130.56-150.1a1069,1069,0,0,1,81.43-76.12c1.23-1-.55-2.79-1.77-1.77-50.6,42.34-96.36,90-139.65,139.73-44.71,51.33-87.09,104.65-130,157.52l-77.38,95.43c-1,1.24.76,3,1.77,1.77Z"/><path class="cls-3" d="M10240.42,1133.37l-13.42,17.86c-1,1.29,1.21,2.54,2.16,1.27l13.41-17.87c1-1.28-1.2-2.53-2.15-1.26Z"/><path class="cls-3" d="M10241.18,1156.13A873.51,873.51,0,0,1,10416.56,1030c1.41-.77.15-2.93-1.26-2.16a876.37,876.37,0,0,0-175.89,126.53c-1.18,1.1.59,2.86,1.77,1.77Z"/><path class="cls-2" d="M10418.84,1027.46c-6.67,15,4.45,33.64,20,38.86s33-.41,46.21-10.19,23-23.29,33.18-36.14,21.41-25.56,36.13-32.8"/><path class="cls-3" d="M10417.63,1027.13c-4.09,10-1.34,20.93,5.2,29.18,7.28,9.17,18.31,13.59,29.89,13.23,29.56-.93,48.65-26.23,65.34-47.33,10.45-13.22,21.67-26.18,36.93-33.94,1.43-.73.17-2.88-1.26-2.16-30.19,15.35-42.83,49.29-69.31,68.94-12.88,9.55-30.82,15.78-46.49,9.61-14.08-5.54-23.9-22.23-17.89-36.86.62-1.49-1.8-2.14-2.41-.67Z"/><path class="cls-2" d="M10519.16,944c11-5,25.21-1.45,32.49,8.18s6.83,24.32-1,33.49"/><path class="cls-3" d="M10519.79,945c10.21-4.33,22.86-1.66,30.11,6.9,7.83,9.26,7.3,23.54-.14,32.81-1,1.24.76,3,1.76,1.77,8-10,9-24.89,1-35.26s-22.32-13.34-34-8.38c-1.47.63-.2,2.79,1.27,2.16Z"/><path class="cls-4" d="M10419.89,1033.45a172.88,172.88,0,0,1,96.73-84.7"/><path class="cls-3" d="M10421,1034.09a172.58,172.58,0,0,1,96-84.13c1.51-.53.86-3-.66-2.41a175.14,175.14,0,0,0-97.48,85.27c-.73,1.43,1.43,2.7,2.16,1.27Z"/><path class="cls-3" d="M10535.77,1011.61c14.65,68.86-47.18,122.09-90.43,165.44l-152.72,153.1-85.86,86.08a1.25,1.25,0,0,0,1.76,1.77l156.95-157.34,78.82-79c23.32-23.38,48.21-46.09,67.61-73,20.23-28,33.69-62.92,26.28-97.74-.33-1.57-2.74-.9-2.41.67Z"/><path class="cls-3" d="M10224.74,1396.38c-61.19,65.17-103.2,147.67-120.43,235.36a473.24,473.24,0,0,0-8.55,74.58c-.05,1.61,2.45,1.6,2.5,0,3.09-88.64,31.75-175.87,81.31-249.38a468.42,468.42,0,0,1,46.94-58.79c1.1-1.17-.66-2.94-1.77-1.77Z"/><path class="cls-3" d="M10107.09,1668.2q-48.69,135.16-102.81,268.28-27.56,67.74-56.51,134.9c-16.27,37.75-32.2,75.89-52.13,111.91-21.47,38.8-48.37,75.24-85,100.92-1.31.91-.06,3.08,1.26,2.16,66-46.23,98.87-123.45,129.92-194.89q57.91-133.24,110.31-268.8,29.59-76.58,57.41-153.81c.55-1.52-1.87-2.17-2.41-.67Z"/><path class="cls-3" d="M9831.42,2264.48c-17.79,30.58-39.44,58.86-61.36,86.55-26.37,33.31-53.73,65.82-80.65,98.68-54.35,66.35-109.7,134.48-148.22,211.6-17.74,35.53-32,73.92-34.32,113.9-.09,1.61,2.41,1.6,2.5,0,2.07-35.95,14-70.7,29.32-103.05,17.62-37.33,39.95-72.34,63.73-106,50.23-71.12,107.89-136.47,162.25-204.37,24.58-30.7,49.1-62,68.91-96a1.25,1.25,0,0,0-2.16-1.26Z"/><path class="cls-3" d="M9576.55,1510a1561.67,1561.67,0,0,0,52.11-352.32q1.62-50.1,0-100.22c0-1.6-2.55-1.61-2.5,0a1558.72,1558.72,0,0,1-29.25,354.28q-9.8,49.15-22.77,97.6a1.25,1.25,0,0,0,2.41.66Z"/><path class="cls-3" d="M9540.81,1688.28c2.36-71.08,10.72-141.91,21.86-212.1s25.3-140.2,41.85-209.46q12.15-50.85,26.27-101.19a1.25,1.25,0,0,0-2.41-.67c-17.8,63.09-33,126.92-46.26,191.12-14.63,71.12-26.76,142.82-34.91,215-4.4,39-7.6,78.11-8.9,117.32,0,1.61,2.45,1.61,2.5,0Z"/><path class="cls-3" d="M9546.29,1688.83l0-.08-2.41-.67c-10.12,43.46-21.62,86.64-32.42,129.94q-28.78,115.37-57.56,230.73c-13,52.05-25,104.44-39,156.22-9.26,34.23-25.43,66.24-44,96.28-42.22,68.24-96.7,128.06-147.78,189.61-47.55,57.31-96.83,117.54-124.06,187.69q-4.51,11.64-8,23.63a1.25,1.25,0,0,0,2.41.66c21.06-72.12,69.38-134.2,116.11-191.58,50.63-62.17,105.34-121.51,150.2-188.17,20-29.7,38-61.09,50.35-94.81,7.24-19.8,11.71-40.44,16.8-60.86q9.95-39.83,19.87-79.65,30.33-121.55,60.65-243.09l38.25-153.33c.22-.87.44-1.73.65-2.6.36-1.56-2-2.23-2.41-.67l0,.08c-.39,1.56,2,2.23,2.41.67Z"/><path class="cls-3" d="M10074.78,1321.61a1.25,1.25,0,0,0,0-2.5,1.25,1.25,0,0,0,0,2.5Z"/><path class="cls-3" d="M10092.81,830.27a1212.93,1212.93,0,0,1,150.77-109.55c1.37-.85.11-3-1.26-2.16A1216,1216,0,0,0,10091,828.5c-1.22,1,.55,2.8,1.77,1.77Z"/><path class="cls-3" d="M10001.5,1155.19l67.63,55.73c1.23,1,3-.75,1.77-1.77l-67.63-55.73c-1.23-1-3,.74-1.77,1.77Z"/><path class="cls-3" d="M9974.75,1188.21c7.25-.14,15,2.63,18.64,9.29.78,1.41,2.93.15,2.16-1.26-4-7.41-12.7-10.69-20.8-10.53a1.25,1.25,0,0,0,0,2.5Z"/><path class="cls-3" d="M10045.26,1246.8l-3.52-3.63-1.77,1.76c19.93,20.47,33.09,46.84,35.67,75.43.14,1.59,2.64,1.61,2.5,0-2.64-29.27-16-56.23-36.4-77.19-1.12-1.16-2.89.61-1.77,1.76l3.53,3.64c1.12,1.16,2.88-.61,1.76-1.77Z"/><path class="cls-3" d="M10029,1250.74a153.27,153.27,0,0,1,30.12,86c.06,1.6,2.56,1.61,2.5,0a155.63,155.63,0,0,0-30.46-87.28c-1-1.27-3.12,0-2.16,1.27Z"/><path class="cls-4" d="M10078,1200c18.77-2.29,38.52-6.54,52.13-19.67s17.56-37.77,3.49-50.41c-9.91-8.9-25.79-8.93-37.31-2.26s-19.05,18.84-22.89,31.6-4.41,26.24-5,39.55"/><path class="cls-3" d="M10078,1201.27c16.71-2.09,34.24-5.43,48-15.78,11.11-8.36,18.26-21.66,17.65-35.74-.6-13.77-9.75-25.09-23.52-27.53-15.18-2.7-29.47,5.06-38.34,17.1-12.6,17.11-13.73,39.06-14.57,59.51-.07,1.6,2.43,1.6,2.5,0,.67-16.33,1.36-33.23,8.36-48.3,6.33-13.65,18.25-25.3,33.91-26.27,14.74-.91,27.49,8.58,29,23.56,1.33,13-4.72,26.09-14.7,34.25-13.54,11.07-31.41,14.59-48.32,16.7-1.57.19-1.59,2.7,0,2.5Z"/><path class="cls-5" d="M10076.1,1214c8.76.91,14.5,12.24,10,19.83s-17.15,8.12-22.21.92-.28-19,8.38-20.59"/><path class="cls-3" d="M10075.77,1215.19c13.53,2,14.2,22.72-.5,23.37-6.16.28-11.81-3.63-12.13-10.12a12.79,12.79,0,0,1,9.51-13.09c1.56-.38.9-2.79-.67-2.41-7.09,1.68-11.87,8.79-11.32,16,.58,7.58,7.28,12.39,14.61,12.1,7.1-.27,13.4-5.27,13.65-12.65s-5.1-14.51-12.49-15.63c-1.57-.24-2.25,2.17-.66,2.41Z"/><path class="cls-3" d="M10079,1238.55c14.89,6.87,29.71,21.27,25,39.16a1.25,1.25,0,0,0,2.41.66c5-19-10.15-34.61-26.13-42-1.45-.67-2.72,1.48-1.26,2.16Z"/><path class="cls-3" d="M10089.93,1235.45c3.49-3.08,15.46,12.23,17.36,15a48.46,48.46,0,0,1,8.26,21.19c.2,1.58,2.71,1.6,2.5,0-2.18-16.82-12.73-30.43-26.43-39.88a1.27,1.27,0,0,0-1.51.2l-2,1.71c-1.21,1.07.57,2.83,1.77,1.77Z"/><path class="cls-3" d="M10127.4,1185.92c15.47,8.68,25.77,24,29.18,41.32a1.25,1.25,0,0,0,1.54.87l1.25-.39c1.53-.49.88-2.9-.66-2.41l-1.25.39,1.53.88c-3.53-17.89-14.33-33.84-30.32-42.82-1.41-.78-2.67,1.38-1.27,2.16Z"/><path class="cls-3" d="M10141.75,1170.69c14.58,10.63,25,26,28.22,43.84.29,1.58,2.7.91,2.41-.67-3.38-18.5-14.28-34.33-29.36-45.33-1.3-1-2.55,1.22-1.27,2.16Z"/><path class="cls-3" d="M10083.6,1136.78a58.29,58.29,0,0,0-53.49-29.45c-1.6.09-1.61,2.59,0,2.5a55.79,55.79,0,0,1,51.33,28.21,1.25,1.25,0,0,0,2.16-1.26Z"/><path class="cls-3" d="M10022.29,1126.65a86.15,86.15,0,0,1,53.13,30.37c1,1.24,2.78-.53,1.76-1.77a88.18,88.18,0,0,0-54.22-31c-1.58-.25-2.25,2.16-.67,2.41Z"/><path class="cls-3" d="M10076.93,1175.47a313.18,313.18,0,0,0-56-32.12c-1.46-.65-2.73,1.5-1.27,2.16a312.91,312.91,0,0,1,56,32.12c1.3.95,2.55-1.22,1.26-2.16Z"/><path class="cls-3" d="M9997.65,1168.63l-2.1-4.07-1.71,1.71,65.55,50.43c1.27,1,2.52-1.19,1.26-2.16l-65.55-50.42c-1.07-.83-2.22.71-1.71,1.71l2.1,4.06c.74,1.43,2.89.17,2.16-1.26Z"/><path class="cls-3" d="M10516.89,947.14a1.25,1.25,0,0,0,0-2.5,1.25,1.25,0,0,0,0,2.5Z"/><path class="cls-3" d="M9641.57,662.81l10-3.45c1.51-.52.86-2.93-.67-2.41l-10,3.45c-1.52.52-.87,2.94.66,2.41Z"/><path class="cls-6" d="M10041,1176.28a279.23,279.23,0,0,0-53,32.24c-11.05,8.54-21.74,18.29-27.65,31s-6.07,28.83,2.82,39.61c12,14.58,36.29,13.48,51.15,1.8s21.9-30.72,25.47-49.28,4.38-37.71,10.12-55.72"/><path class="cls-3" d="M10040.35,1175.21c-21.7,10.14-42.67,22.87-60.83,38.56-15.07,13-28.27,31.45-23.83,52.44,3.77,17.79,20.63,26.73,37.87,24.49,19.46-2.52,33-17.43,40.32-34.76,10.75-25.34,9.12-53.65,17.17-79.73.48-1.54-1.93-2.2-2.41-.66-6.52,21.11-6.6,43.44-12.14,64.75-4.74,18.21-14.39,37.91-32.94,45.27-16.7,6.62-38.31,2.22-44.5-16.48-6.83-20.67,6.76-40,21.62-53,18.1-15.82,39.21-28.55,60.93-38.71,1.45-.68.19-2.83-1.26-2.15Z"/><path class="cls-3" d="M9984.14,1205.87a26.33,26.33,0,0,0-17.29-10c-1.58-.23-2.26,2.18-.67,2.41a24.43,24.43,0,0,1,16.2,9.37c1,1.27,2.74-.51,1.76-1.76Z"/><line class="cls-7" x1="10565.62" y1="711.7" x2="10567.16" y2="711.37"/><line class="cls-7" x1="10668.65" y1="730.44" x2="10668.65" y2="730.44"/><line class="cls-7" x1="10563.31" y1="717.54" x2="10563.31" y2="717.54"/><line class="cls-7" x1="10564.88" y1="713.16" x2="10570.53" y2="707.75"/><path class="cls-4" d="M10566.83,708.87c15.2-18.35,34.63-32.84,55.31-44.68s42.7-21.14,64.65-30.41"/><path class="cls-3" d="M10567.72,709.76c31-37.08,76.21-56.53,119.7-74.9,1.48-.63.21-2.78-1.26-2.16-43.68,18.46-89,38.06-120.21,75.29-1,1.23.73,3,1.77,1.77Z"/><path class="cls-6" d="M10640.53,542.8a163.66,163.66,0,0,0,7.28,107.85"/><path class="cls-6" d="M10638.12,542.14a167.83,167.83,0,0,0,7.54,109.77c1.25,3,5.56.41,4.31-2.52a162.34,162.34,0,0,1-7-105.92c.85-3.11-4-4.44-4.82-1.33Z"/><path class="cls-6" d="M10661.06,701a373.94,373.94,0,0,0,54.43,118.82"/><path class="cls-6" d="M10658.65,701.68a380.2,380.2,0,0,0,54.68,119.43c1.82,2.63,6.15.13,4.32-2.53a376.15,376.15,0,0,1-54.18-118.23c-.82-3.11-5.64-1.79-4.82,1.33Z"/><path class="cls-6" d="M10681.71,536.7l44.11,51.8"/><path class="cls-6" d="M10680,538.46l44.11,51.81c2.08,2.45,5.61-1.1,3.53-3.54l-44.11-51.8c-2.09-2.45-5.61,1.1-3.53,3.53Z"/><path class="cls-6" d="M10747,621.65a335.17,335.17,0,0,1,38.84,98.66"/><path class="cls-6" d="M10744.8,622.91a337.88,337.88,0,0,1,38.59,98.06c.7,3.14,5.52,1.81,4.82-1.33a342.34,342.34,0,0,0-39.09-99.25c-1.63-2.78-6-.26-4.32,2.52Z"/><path class="cls-6" d="M10796.38,761.64a183.12,183.12,0,0,1,13.53,98"/><path class="cls-6" d="M10794.22,762.9a183,183,0,0,1,13.19,96.71c-.42,3.18,4.58,3.15,5,0a187.59,187.59,0,0,0-13.88-99.24c-1.27-2.94-5.58-.4-4.31,2.53Z"/><path class="cls-6" d="M10735.67,851.16a103.64,103.64,0,0,0,62.16,35.22"/><path class="cls-6" d="M10733.91,852.92a106.94,106.94,0,0,0,63.26,35.87c3.15.53,4.5-4.29,1.33-4.82a102.74,102.74,0,0,1-61.06-34.58c-2.09-2.45-5.61,1.1-3.53,3.53Z"/></svg>
