<svg id="Layer_1" data-name="Layer 1" xmlns="http://www.w3.org/2000/svg" viewBox="0 0 161.57 65.2"><defs><style>.cls-1{fill:#fff;}</style></defs><title>logo_full_white</title><path class="cls-1" d="M2.52,61.55V47.79c0-.29.16-.44.48-.44H6.12a5.42,5.42,0,0,1,3,.71,3,3,0,0,1,1.07,2.65,4.48,4.48,0,0,1-.46,2.13,2.6,2.6,0,0,1-1.24,1.21A3.28,3.28,0,0,1,10,55.27a4.15,4.15,0,0,1,.53,2.26v.36a4,4,0,0,1-1,3.11,4.13,4.13,0,0,1-2.87,1H3a.5.5,0,0,1-.35-.12A.38.38,0,0,1,2.52,61.55Zm1-8h2.7A3.43,3.43,0,0,0,8.51,53a2.83,2.83,0,0,0,.71-2.17,2.18,2.18,0,0,0-.78-2,4.19,4.19,0,0,0-2.3-.52H3.52Zm0,7.42h3c2,0,3-1.06,3-3.16v-.34a3,3,0,0,0-.77-2.29,3.22,3.22,0,0,0-2.25-.71h-3Z"/><path class="cls-1" d="M13.16,61.53V47.77c0-.28.17-.42.5-.42s.5.14.5.42V61.53c0,.29-.17.44-.5.44S13.16,61.82,13.16,61.53Z"/><path class="cls-1" d="M17.32,61.53V47.77a.42.42,0,0,1,.12-.3.47.47,0,0,1,.32-.12h3.42a4.82,4.82,0,0,1,3.05.91,3.51,3.51,0,0,1,1.17,3,3.44,3.44,0,0,1-3,3.8l-.23,0,3.2,6.2a.5.5,0,0,1,.06.24.47.47,0,0,1-.15.35.51.51,0,0,1-.39.15c-.16,0-.37-.23-.62-.7L21.1,55.15H18.32v6.38c0,.29-.17.44-.5.44S17.32,61.82,17.32,61.53Zm1-7.3h2.86q3.22,0,3.22-3t-3.22-2.94H18.32Z"/><path class="cls-1" d="M27.5,57.89V51.55a4.16,4.16,0,0,1,1.09-3.19,4.08,4.08,0,0,1,2.91-1,4.35,4.35,0,0,1,3,1,3.06,3.06,0,0,1,1.1,2.43c0,.35-.17.52-.5.52s-.49-.14-.5-.42a2.68,2.68,0,0,0-2.84-2.53H31.6q-3,0-3,3.24V57.9q0,3.24,3,3.24a3,3,0,0,0,2.25-.81,3.31,3.31,0,0,0,.79-2.43V55.21h-3a.37.37,0,0,1-.29-.14.51.51,0,0,1,0-.64.34.34,0,0,1,.29-.14h3.54a.37.37,0,0,1,.3.14.47.47,0,0,1,.12.32v3.14a4.14,4.14,0,0,1-1.11,3.19,4.22,4.22,0,0,1-2.93,1,4.13,4.13,0,0,1-2.93-1A4.16,4.16,0,0,1,27.5,57.89Z"/><path class="cls-1" d="M38.36,61.53V47.77c0-.28.17-.42.5-.42s.5.14.5.42V61.53c0,.29-.17.44-.5.44S38.36,61.82,38.36,61.53Z"/><path class="cls-1" d="M41.36,48.17a.54.54,0,0,1,0-.68.37.37,0,0,1,.3-.14h7.92c.28,0,.42.15.42.46s-.14.5-.42.5H46.14V61.53c0,.29-.17.44-.5.44s-.5-.15-.5-.44V48.31H41.66A.37.37,0,0,1,41.36,48.17Z"/><path class="cls-1" d="M50.72,48.17a.54.54,0,0,1,0-.68.37.37,0,0,1,.3-.14h7.92c.28,0,.42.15.42.46s-.14.5-.42.5H55.5V61.53c0,.29-.17.44-.5.44s-.5-.15-.5-.44V48.31H51A.42.42,0,0,1,50.72,48.17Z"/><path class="cls-1" d="M61.24,61.53V47.79c0-.29.16-.44.48-.44h7.12c.28,0,.42.15.42.46a.55.55,0,0,1-.12.35.36.36,0,0,1-.3.15h-6.6v5.88h3.18a.37.37,0,0,1,.3.14.52.52,0,0,1,.12.34c0,.29-.14.44-.42.44H62.24V61h6.6a.36.36,0,0,1,.3.15.55.55,0,0,1,.12.35c0,.3-.14.46-.42.46H61.72A.39.39,0,0,1,61.24,61.53Z"/><path class="cls-1" d="M75.3,61.55V47.79c0-.29.16-.44.48-.44H78.9a5.42,5.42,0,0,1,3,.71A3,3,0,0,1,83,50.71a4.6,4.6,0,0,1-.46,2.13,2.6,2.6,0,0,1-1.24,1.21,3.39,3.39,0,0,1,1.53,1.22,4.15,4.15,0,0,1,.53,2.26v.36A4,4,0,0,1,82.29,61a4.18,4.18,0,0,1-2.87,1H75.78a.46.46,0,0,1-.35-.12A.38.38,0,0,1,75.3,61.55Zm1-8H79A3.43,3.43,0,0,0,81.29,53,2.84,2.84,0,0,0,82,50.79a2.18,2.18,0,0,0-.78-2,4.19,4.19,0,0,0-2.3-.52H76.3Zm0,7.42h3c2,0,3-1.06,3-3.16v-.34a3,3,0,0,0-.77-2.29,3.26,3.26,0,0,0-2.25-.71h-3Z"/><path class="cls-1" d="M85.8,57.89V51.55a4,4,0,1,1,8.06,0v6.34a4.14,4.14,0,0,1-1.11,3.19,4.22,4.22,0,0,1-2.93,1,3.68,3.68,0,0,1-4-3.3,3.87,3.87,0,0,1,0-.9Zm1,0q0,3.24,3,3.24a3,3,0,0,0,2.25-.81,3.42,3.42,0,0,0,.79-2.43V51.55a3.42,3.42,0,0,0-.79-2.43,3,3,0,0,0-2.25-.81q-3,0-3,3.24Z"/><path class="cls-1" d="M96.88,61.53V47.77c0-.28.16-.42.5-.42s.52.27.82.82L104,59.59V47.77c0-.28.16-.42.5-.42s.5.14.5.42V61.53c0,.29-.17.44-.5.44s-.46-.25-.72-.74l-5.9-11.52V61.53c0,.29-.17.44-.5.44S96.88,61.82,96.88,61.53Z"/><path class="cls-1" d="M108.14,61.53V47.77c0-.28.16-.42.5-.42s.52.27.82.82l5.78,11.42V47.77c0-.28.16-.42.5-.42s.5.14.5.42V61.53c0,.29-.17.44-.5.44s-.46-.25-.72-.74l-5.88-11.52V61.53c0,.29-.17.44-.5.44S108.14,61.82,108.14,61.53Z"/><path class="cls-1" d="M119.4,61.53V47.79c0-.29.16-.44.48-.44H127c.28,0,.42.15.42.46a.55.55,0,0,1-.12.35.36.36,0,0,1-.3.15h-6.6v5.88h3.18a.37.37,0,0,1,.3.14.52.52,0,0,1,.12.34c0,.29-.14.44-.42.44H120.4V61H127a.36.36,0,0,1,.3.15.55.55,0,0,1,.12.35c0,.3-.14.46-.42.46h-7.12A.39.39,0,0,1,119.4,61.53Z"/><path class="cls-1" d="M129.46,61.53V47.77a.42.42,0,0,1,.12-.3.41.41,0,0,1,.32-.12h3.42a4.82,4.82,0,0,1,3.05.91,3.51,3.51,0,0,1,1.17,3,3.44,3.44,0,0,1-3,3.8l-.23,0,3.2,6.2a.5.5,0,0,1,.06.24.47.47,0,0,1-.15.35A.56.56,0,0,1,137,62c-.16,0-.37-.23-.62-.7l-3.14-6.14h-2.78v6.38c0,.29-.17.44-.5.44S129.46,61.82,129.46,61.53Zm1-7.3h2.86c2.14,0,3.22-1,3.22-3s-1.08-2.94-3.22-2.94h-2.86Z"/><path class="cls-1" d="M139.72,57.89V47.77c0-.28.16-.42.5-.42s.5.14.5.42V57.89a3.31,3.31,0,0,0,.79,2.43,3.54,3.54,0,0,0,4.51,0,3.32,3.32,0,0,0,.8-2.43V47.77c0-.28.16-.42.5-.42s.5.14.5.42V57.89a4.14,4.14,0,0,1-1.11,3.19,4.91,4.91,0,0,1-5.94,0A4.12,4.12,0,0,1,139.72,57.89Z"/><path class="cls-1" d="M150.92,61.53V47.77c0-.25.15-.4.46-.42H155a3.69,3.69,0,0,1,4,3.33,3.46,3.46,0,0,1,0,.85v.22a4.1,4.1,0,0,1-1.11,3.18A4.17,4.17,0,0,1,155,56h-3v5.58c0,.29-.17.44-.5.44A.52.52,0,0,1,150.92,61.53Zm1-6.5h3a3,3,0,0,0,2.25-.81,3.41,3.41,0,0,0,.79-2.45v-.22a3.42,3.42,0,0,0-.79-2.43,3,3,0,0,0-2.25-.81h-3Z"/><path class="cls-1" d="M60.71,5h1.6a7.76,7.76,0,0,1,5.45,2A6.76,6.76,0,0,1,70,12.2a7.33,7.33,0,0,1-1.23,3.87,5.75,5.75,0,0,1-2.87,2.57,11.66,11.66,0,0,1,6.4,4.11,12.17,12.17,0,0,1,2.55,7.92A11.18,11.18,0,0,1,71.16,39a12.31,12.31,0,0,1-8.85,3.53h-1.6Zm1.6,1.39V18.2h.4a5.3,5.3,0,0,0,4-1.83,6,6,0,0,0,1.73-4.2,5.57,5.57,0,0,0-1.7-4.07,5.46,5.46,0,0,0-4-1.71Zm0,13.15V41.1h.4a10,10,0,0,0,7.42-3.21,10.8,10.8,0,0,0,0-15.17,10,10,0,0,0-7.45-3.18Z"/><path class="cls-1" d="M80.06,5h1.6A7.69,7.69,0,0,1,87.1,7a6.71,6.71,0,0,1,2.21,5.18,7.33,7.33,0,0,1-1.23,3.87,5.74,5.74,0,0,1-2.88,2.57,11.57,11.57,0,0,1,6.4,4.11,12.13,12.13,0,0,1,2.56,7.92A11.18,11.18,0,0,1,90.51,39a12.31,12.31,0,0,1-8.85,3.53h-1.6Zm1.6,1.39V18.2h.4a5.3,5.3,0,0,0,4-1.83,6,6,0,0,0,1.73-4.2,5.57,5.57,0,0,0-1.7-4.07,5.46,5.46,0,0,0-4-1.71Zm0,13.15V41.1h.4a10,10,0,0,0,7.42-3.21,10.82,10.82,0,0,0,0-15.17A10.05,10.05,0,0,0,82,19.54Z"/></svg>
