<svg id="Layer_1" data-name="Layer 1" xmlns="http://www.w3.org/2000/svg" viewBox="0 0 42.52 48.19"><defs><style>.cls-1{fill:#231f20;}</style></defs><title>logo_bb</title><path class="cls-1" d="M4.72,4.9h1.6a7.76,7.76,0,0,1,5.45,2A6.75,6.75,0,0,1,14,12.1,7.27,7.27,0,0,1,12.74,16a5.79,5.79,0,0,1-2.87,2.58,11.63,11.63,0,0,1,6.4,4.1,12.18,12.18,0,0,1,2.55,7.92,11.17,11.17,0,0,1-3.65,8.3A12.3,12.3,0,0,1,6.32,42.4H4.72Zm1.6,1.4V18.1h.4a5.31,5.31,0,0,0,4-1.83,5.92,5.92,0,0,0,1.73-4.2A5.56,5.56,0,0,0,10.72,8a5.5,5.5,0,0,0-4-1.7Zm0,13.15V41h.4a10,10,0,0,0,7.42-3.2,10.8,10.8,0,0,0,0-15.18,10.07,10.07,0,0,0-7.45-3.17Z"/><path class="cls-1" d="M24.07,4.9h1.6a7.76,7.76,0,0,1,5.45,2,6.75,6.75,0,0,1,2.2,5.18A7.27,7.27,0,0,1,32.09,16a5.79,5.79,0,0,1-2.87,2.58,11.63,11.63,0,0,1,6.4,4.1,12.18,12.18,0,0,1,2.55,7.92,11.17,11.17,0,0,1-3.65,8.3,12.3,12.3,0,0,1-8.85,3.53h-1.6Zm1.6,1.4V18.1h.4a5.31,5.31,0,0,0,4-1.83,5.92,5.92,0,0,0,1.73-4.2A5.56,5.56,0,0,0,30.07,8a5.5,5.5,0,0,0-4-1.7Zm0,13.15V41h.4a10,10,0,0,0,7.42-3.2,10.8,10.8,0,0,0,0-15.18,10.07,10.07,0,0,0-7.45-3.17Z"/></svg>
