<svg id="Layer_1" data-name="Layer 1" xmlns="http://www.w3.org/2000/svg" viewBox="0 0 160.39 61.83"><defs><style>.cls-1{fill:#41575d;}.cls-2{fill:#5c8695;}</style></defs><title>nyt_logo_bb</title><path class="cls-1" d="M2.28,58.37V44.61c0-.29.16-.44.48-.44H5.88a5.52,5.52,0,0,1,3,.71A3,3,0,0,1,10,47.53a4.59,4.59,0,0,1-.46,2.13,2.59,2.59,0,0,1-1.24,1.21,3.41,3.41,0,0,1,1.53,1.22,4.1,4.1,0,0,1,.53,2.26v.36a4,4,0,0,1-1.07,3.11,4.11,4.11,0,0,1-2.87,1H2.76a.48.48,0,0,1-.35-.12A.38.38,0,0,1,2.28,58.37Zm1-8H6a3.42,3.42,0,0,0,2.29-.63A2.8,2.8,0,0,0,9,47.61a2.19,2.19,0,0,0-.78-2,4.14,4.14,0,0,0-2.3-.52H3.28Zm0,7.42h3q3,0,3-3.16v-.34A3,3,0,0,0,8.57,52a3.25,3.25,0,0,0-2.25-.71h-3Z"/><path class="cls-1" d="M12.92,58.35V44.59c0-.28.16-.42.5-.42s.5.14.5.42V58.35c0,.29-.17.44-.5.44S12.92,58.64,12.92,58.35Z"/><path class="cls-1" d="M17.08,58.35V44.59a.41.41,0,0,1,.12-.3.42.42,0,0,1,.32-.12h3.42a4.81,4.81,0,0,1,3,.91,3.54,3.54,0,0,1,1.17,3,3.44,3.44,0,0,1-3.26,3.82l3.2,6.2a.53.53,0,0,1,.06.24.49.49,0,0,1-.15.35.53.53,0,0,1-.39.15c-.16,0-.37-.23-.62-.7L20.86,52H18.08v6.38c0,.29-.17.44-.5.44S17.08,58.64,17.08,58.35Zm1-7.3h2.86c2.14,0,3.22-1,3.22-3s-1.08-2.94-3.22-2.94H18.08Z"/><path class="cls-1" d="M27.26,54.71V48.37a4.15,4.15,0,0,1,1.09-3.19,4.1,4.1,0,0,1,2.91-1,4.4,4.4,0,0,1,3,.95,3.07,3.07,0,0,1,1.1,2.43c0,.35-.17.52-.5.52s-.49-.14-.5-.42a2.69,2.69,0,0,0-3-2.52c-2,0-3,1.08-3,3.24v6.34c0,2.16,1,3.24,3,3.24a3,3,0,0,0,2.25-.81,3.38,3.38,0,0,0,.79-2.43V52h-3a.36.36,0,0,1-.29-.14.52.52,0,0,1,0-.64.36.36,0,0,1,.29-.14H34.9a.39.39,0,0,1,.3.14.47.47,0,0,1,.12.32v3.14a4.12,4.12,0,0,1-1.11,3.19,4.21,4.21,0,0,1-2.93,1,4.14,4.14,0,0,1-2.93-1A4.15,4.15,0,0,1,27.26,54.71Z"/><path class="cls-1" d="M38.12,58.35V44.59c0-.28.16-.42.5-.42s.5.14.5.42V58.35c0,.29-.17.44-.5.44S38.12,58.64,38.12,58.35Z"/><path class="cls-1" d="M41.11,45a.54.54,0,0,1,0-.68.43.43,0,0,1,.31-.14h7.92c.27,0,.42.15.42.46s-.15.5-.42.5H45.9V58.35c0,.29-.17.44-.5.44s-.5-.15-.5-.44V45.13H41.42A.43.43,0,0,1,41.11,45Z"/><path class="cls-1" d="M50.47,45a.54.54,0,0,1,0-.68.41.41,0,0,1,.31-.14H58.7c.27,0,.41.15.41.46s-.14.5-.41.5H55.26V58.35c0,.29-.17.44-.5.44s-.5-.15-.5-.44V45.13H50.78A.41.41,0,0,1,50.47,45Z"/><path class="cls-1" d="M61,58.35V44.61c0-.29.17-.44.48-.44h7.12c.28,0,.42.15.42.46a.55.55,0,0,1-.12.35.37.37,0,0,1-.3.15H62V51h3.18a.39.39,0,0,1,.3.14.5.5,0,0,1,.12.34c0,.29-.14.44-.42.44H62v5.9h6.6a.37.37,0,0,1,.3.15.55.55,0,0,1,.12.35c0,.31-.14.46-.42.46H61.47C61.16,58.79,61,58.64,61,58.35Z"/><path class="cls-1" d="M75.05,58.37V44.61c0-.29.17-.44.48-.44h3.13a5.46,5.46,0,0,1,3,.71,2.94,2.94,0,0,1,1.07,2.65,4.47,4.47,0,0,1-.46,2.13,2.55,2.55,0,0,1-1.24,1.21,3.3,3.3,0,0,1,1.53,1.22,4,4,0,0,1,.53,2.26v.36A4,4,0,0,1,82,57.82a4.08,4.08,0,0,1-2.86,1H75.53a.51.51,0,0,1-.35-.12A.42.42,0,0,1,75.05,58.37Zm1-8h2.7A3.39,3.39,0,0,0,81,49.78a2.76,2.76,0,0,0,.71-2.17,2.19,2.19,0,0,0-.78-2,4.11,4.11,0,0,0-2.29-.52H76.05Zm0,7.42h3c2,0,3-1,3-3.16v-.34A3,3,0,0,0,81.34,52a3.21,3.21,0,0,0-2.25-.71h-3Z"/><path class="cls-1" d="M85.55,54.71V48.37a3.68,3.68,0,0,1,4-4.2,4.23,4.23,0,0,1,2.94,1,4.15,4.15,0,0,1,1.1,3.19v6.34a4.15,4.15,0,0,1-1.1,3.19,4.23,4.23,0,0,1-2.94,1,3.68,3.68,0,0,1-4-4.2Zm1,0q0,3.24,3,3.24a3,3,0,0,0,2.25-.81,3.34,3.34,0,0,0,.79-2.43V48.37a3.34,3.34,0,0,0-.79-2.43,3,3,0,0,0-2.25-.81q-3,0-3,3.24Z"/><path class="cls-1" d="M96.64,58.35V44.59c0-.28.16-.42.5-.42s.52.27.81.82l5.79,11.42V44.59c0-.28.16-.42.5-.42s.5.14.5.42V58.35c0,.29-.17.44-.5.44s-.46-.25-.73-.74L97.64,46.53V58.35c0,.29-.17.44-.5.44S96.64,58.64,96.64,58.35Z"/><path class="cls-1" d="M107.89,58.35V44.59c0-.28.17-.42.5-.42s.53.27.82.82L115,56.41V44.59c0-.28.17-.42.5-.42s.5.14.5.42V58.35c0,.29-.16.44-.5.44s-.45-.25-.72-.74l-5.88-11.52V58.35c0,.29-.16.44-.5.44S107.89,58.64,107.89,58.35Z"/><path class="cls-1" d="M119.15,58.35V44.61c0-.29.16-.44.48-.44h7.12c.28,0,.42.15.42.46a.55.55,0,0,1-.12.35.37.37,0,0,1-.3.15h-6.6V51h3.18a.39.39,0,0,1,.3.14.5.5,0,0,1,.12.34c0,.29-.14.44-.42.44h-3.18v5.9h6.6a.37.37,0,0,1,.3.15.55.55,0,0,1,.12.35c0,.31-.14.46-.42.46h-7.12C119.31,58.79,119.15,58.64,119.15,58.35Z"/><path class="cls-1" d="M129.21,58.35V44.59a.41.41,0,0,1,.12-.3.44.44,0,0,1,.32-.12h3.42a4.79,4.79,0,0,1,3.05.91,3.54,3.54,0,0,1,1.17,3A3.43,3.43,0,0,1,134,51.87l3.2,6.2a.53.53,0,0,1,.06.24.49.49,0,0,1-.15.35.53.53,0,0,1-.39.15c-.16,0-.36-.23-.62-.7L133,52h-2.78v6.38c0,.29-.16.44-.5.44S129.21,58.64,129.21,58.35Zm1-7.3h2.86q3.23,0,3.22-3t-3.22-2.94h-2.86Z"/><path class="cls-1" d="M139.47,54.71V44.59c0-.28.17-.42.5-.42s.5.14.5.42V54.71a3.38,3.38,0,0,0,.79,2.43,3.54,3.54,0,0,0,4.51,0,3.3,3.3,0,0,0,.8-2.43V44.59c0-.28.17-.42.5-.42s.5.14.5.42V54.71a4.12,4.12,0,0,1-1.11,3.19,4.8,4.8,0,0,1-5.89,0A4.15,4.15,0,0,1,139.47,54.71Z"/><path class="cls-1" d="M150.67,58.35V44.59c0-.25.16-.39.46-.42h3.6a4.15,4.15,0,0,1,2.92,1,4.08,4.08,0,0,1,1.1,3.17v.22a3.72,3.72,0,0,1-4,4.2h-3v5.58c0,.29-.16.44-.5.44S150.67,58.64,150.67,58.35Zm1-6.5h3A3,3,0,0,0,157,51a3.37,3.37,0,0,0,.79-2.45v-.22a3.34,3.34,0,0,0-.79-2.43,3,3,0,0,0-2.25-.81h-3Z"/><path class="cls-2" d="M61.76,2.43h1.6a7.75,7.75,0,0,1,5.45,2A6.7,6.7,0,0,1,71,9.63a7.4,7.4,0,0,1-1.22,3.88,5.82,5.82,0,0,1-2.88,2.57,11.65,11.65,0,0,1,6.4,4.1,12.21,12.21,0,0,1,2.55,7.93,11.19,11.19,0,0,1-3.65,8.3,12.26,12.26,0,0,1-8.85,3.52h-1.6Zm1.6,1.4v11.8h.4a5.32,5.32,0,0,0,4-1.82,5.94,5.94,0,0,0,1.72-4.2,5.6,5.6,0,0,0-1.7-4.08,5.49,5.49,0,0,0-4-1.7Zm0,13.15V38.53h.4a10,10,0,0,0,7.43-3.2,10.8,10.8,0,0,0,0-15.17A10,10,0,0,0,63.76,17Z"/><path class="cls-2" d="M81.11,2.43h1.6a7.75,7.75,0,0,1,5.45,2,6.7,6.7,0,0,1,2.2,5.17,7.4,7.4,0,0,1-1.22,3.88,5.82,5.82,0,0,1-2.88,2.57,11.65,11.65,0,0,1,6.4,4.1,12.21,12.21,0,0,1,2.55,7.93,11.19,11.19,0,0,1-3.65,8.3,12.26,12.26,0,0,1-8.85,3.52h-1.6Zm1.6,1.4v11.8h.4a5.32,5.32,0,0,0,4-1.82,5.94,5.94,0,0,0,1.72-4.2,5.6,5.6,0,0,0-1.7-4.08,5.49,5.49,0,0,0-4-1.7Zm0,13.15V38.53h.4a10,10,0,0,0,7.43-3.2,10.8,10.8,0,0,0,0-15.17A10,10,0,0,0,83.11,17Z"/></svg>
