<svg id="Layer_1" data-name="Layer 1" xmlns="http://www.w3.org/2000/svg" viewBox="0 0 1445.59 318.84"><defs><style>.cls-1{fill:none;stroke:#5d8495;stroke-miterlimit:10;stroke-width:3px;}</style></defs><title>size_chart_bb</title><path class="cls-1" d="M10.53,164.18a147.41,147.41,0,1,1,147.41,147.4A147.4,147.4,0,0,1,10.53,164.18"/><path d="M108.28,151.55a1.2,1.2,0,0,1,.29-.75.84.84,0,0,1,.61-.35c.16,0,.39.17.7.51l1.05,1.13a5,5,0,0,0,1.9,1.13,8.24,8.24,0,0,0,3,.51,6.52,6.52,0,0,0,4.6-1.48,5.67,5.67,0,0,0,1.6-4.37,6.36,6.36,0,0,0-1-3.63,5.52,5.52,0,0,0-2.41-2.06c-1-.42-2-.85-3.14-1.29s-2.18-.88-3.14-1.31a5.57,5.57,0,0,1-2.42-2.12,6.7,6.7,0,0,1-1-3.75,7.45,7.45,0,0,1,.74-3.45,5.17,5.17,0,0,1,2-2.14,9.4,9.4,0,0,1,2.52-1,12.31,12.31,0,0,1,2.71-.29,13.58,13.58,0,0,1,4.35.68c1.34.46,2,1,2,1.54a1.25,1.25,0,0,1-.28.74.76.76,0,0,1-.62.39,2.49,2.49,0,0,1-.86-.37,10.47,10.47,0,0,0-1.89-.74,9.43,9.43,0,0,0-2.75-.37,7.66,7.66,0,0,0-4.25,1.11,4.16,4.16,0,0,0-1.72,3.77,4.63,4.63,0,0,0,.73,2.67,4.91,4.91,0,0,0,1.87,1.66,18.5,18.5,0,0,0,2.53,1c.93.31,1.85.66,2.79,1.05a12,12,0,0,1,2.56,1.44,6.28,6.28,0,0,1,1.87,2.44,9.15,9.15,0,0,1,.72,3.81q0,4-2.17,5.94a8.23,8.23,0,0,1-5.79,2,9.93,9.93,0,0,1-5.55-1.44C109,153.2,108.28,152.33,108.28,151.55Z"/><path d="M126.57,128.46a1.08,1.08,0,0,1,0-1.33.75.75,0,0,1,.59-.27H142.6c.55,0,.82.3.82.9s-.27,1-.82,1h-6.71v25.78c0,.57-.32.86-1,.86s-1-.29-1-.86V128.73h-6.78A.75.75,0,0,1,126.57,128.46Z"/><path d="M147.09,154.51V127.68a.78.78,0,0,1,.23-.59.86.86,0,0,1,.62-.23h6.67a9.42,9.42,0,0,1,5.95,1.77q2.28,1.78,2.28,5.79,0,6.56-6.35,7.45L162.73,154a1.19,1.19,0,0,1,.11.47.94.94,0,0,1-.29.68,1,1,0,0,1-.76.3c-.31,0-.72-.46-1.21-1.37l-6.12-12H149v12.44c0,.57-.33.86-1,.86S147.09,155.08,147.09,154.51ZM149,140.27h5.57q6.28,0,6.28-5.81t-6.28-5.73H149Z"/><path d="M166.18,155.13a1.76,1.76,0,0,1,0-2.26,1.37,1.37,0,0,1,1.07-.47,1.34,1.34,0,0,1,1,.49,1.63,1.63,0,0,1,.43,1.11,1.6,1.6,0,0,1-.43,1.11,1.31,1.31,0,0,1-1,.49A1.34,1.34,0,0,1,166.18,155.13Z"/><path d="M180.78,147.41V135.05c0-2.83.72-4.91,2.15-6.22a9.43,9.43,0,0,1,11.46-.06,6,6,0,0,1,2.11,4.64c0,.65-.3,1-.9,1s-1-.3-1-.9a4.15,4.15,0,0,0-1.7-3.43,6.62,6.62,0,0,0-4.21-1.33q-5.91,0-5.91,6.32v6.39q1.92-2.76,6.07-2.76,7.69,0,7.7,7.72v1q0,4.26-2.13,6.22a9.27,9.27,0,0,1-11.43,0Q180.78,151.67,180.78,147.41Zm1.95.06q0,6.25,5.91,6.26t5.91-6.26v-1.05q0-3.15-1.51-4.55a6.25,6.25,0,0,0-4.4-1.4q-5.91,0-5.91,5.6Z"/><path d="M200.71,147.41V135.05c0-2.83.71-4.91,2.13-6.22a8.07,8.07,0,0,1,5.71-2,8.17,8.17,0,0,1,5.71,2c1.45,1.31,2.17,3.39,2.17,6.22v12.36q0,4.26-2.17,6.22a8.13,8.13,0,0,1-5.71,2,8,8,0,0,1-5.71-2Q200.71,151.67,200.71,147.41Zm1.95,0q0,6.32,5.89,6.32a5.87,5.87,0,0,0,4.39-1.58,6.56,6.56,0,0,0,1.54-4.74V135.05a6.56,6.56,0,0,0-1.54-4.74,5.87,5.87,0,0,0-4.39-1.58q-5.9,0-5.89,6.32Zm5-5.06a1.49,1.49,0,0,1-.37-1,1.43,1.43,0,0,1,.37-1,1.28,1.28,0,0,1,1-.4,1.2,1.2,0,0,1,.91.4,1.39,1.39,0,0,1,.38,1,1.45,1.45,0,0,1-.38,1,1.16,1.16,0,0,1-.91.42A1.23,1.23,0,0,1,207.63,142.35Z"/><path d="M107.38,180.05a1.77,1.77,0,0,1,.47-1l2.89-4.76a1,1,0,0,1,.93-.62c.58,0,.86.27.86.82v26.83c0,.57-.32.86-1,.86s-1-.29-1-.86V177.64l-1.63,2.8a.77.77,0,0,1-.71.51.8.8,0,0,1-.6-.27A.89.89,0,0,1,107.38,180.05Z"/><path d="M117.13,195.85c0-.65.3-1,.9-1s1,.3,1,.9a4.13,4.13,0,0,0,1.71,3.43,6.66,6.66,0,0,0,4.21,1.33q5.9,0,5.89-6.32v-6.39q-1.91,2.76-6.08,2.76-7.65,0-7.65-7.72v-1c0-2.83.71-4.91,2.13-6.22a8,8,0,0,1,5.67-2,8.12,8.12,0,0,1,5.74,2c1.43,1.31,2.14,3.39,2.14,6.22v12.36q0,4.26-2.14,6.22a9.39,9.39,0,0,1-11.43.06A6,6,0,0,1,117.13,195.85Zm2-13q0,3.15,1.51,4.55a6.21,6.21,0,0,0,4.38,1.4q5.9,0,5.89-5.6v-1.4a6.4,6.4,0,0,0-1.54-4.7,5.9,5.9,0,0,0-4.39-1.56,5.75,5.75,0,0,0-4.32,1.56,6.44,6.44,0,0,0-1.53,4.7Z"/><path d="M136.82,201.93a1.73,1.73,0,0,1,0-2.26,1.35,1.35,0,0,1,1.06-.47,1.33,1.33,0,0,1,1,.49,1.64,1.64,0,0,1,.44,1.11,1.61,1.61,0,0,1-.44,1.11,1.3,1.3,0,0,1-1,.49A1.32,1.32,0,0,1,136.82,201.93Z"/><path d="M143,195.85c0-.65.3-1,.9-1s1,.3,1,.9a4.11,4.11,0,0,0,1.72,3.43,6.64,6.64,0,0,0,4.21,1.33q5.89,0,5.89-6.32v-6.39c-1.28,1.84-3.3,2.76-6.09,2.76q-7.63,0-7.64-7.72v-1c0-2.83.71-4.91,2.13-6.22a8,8,0,0,1,5.67-2,8.11,8.11,0,0,1,5.73,2c1.43,1.31,2.15,3.39,2.15,6.22v12.36q0,4.26-2.15,6.22a9.37,9.37,0,0,1-11.42.06A6,6,0,0,1,143,195.85Zm1.95-13q0,3.15,1.5,4.55a6.24,6.24,0,0,0,4.39,1.4q5.89,0,5.89-5.6v-1.4a6.4,6.4,0,0,0-1.54-4.7,5.9,5.9,0,0,0-4.39-1.56,5.79,5.79,0,0,0-4.33,1.56,6.48,6.48,0,0,0-1.52,4.7Z"/><path d="M172,201.31V174.59c0-.62.32-.93,1-.93s1.07.53,1.64,1.6l7.14,14,7.17-14c.58-1.07,1.12-1.6,1.64-1.6s1,.31,1,.93v26.72c0,.57-.33.86-1,.86s-1-.29-1-.86V178.1l-6.95,13.26c-.31.55-.61.82-.89.82s-.64-.27-.9-.82l-6.9-13.29v23.24c0,.57-.33.86-1,.86S172,201.88,172,201.31Z"/><path d="M197.67,201.31V174.59c0-.62.32-.93,1-.93s1.07.53,1.64,1.6l7.14,14,7.17-14c.58-1.07,1.12-1.6,1.64-1.6s1,.31,1,.93v26.72c0,.57-.33.86-1,.86s-1-.29-1-.86V178.1l-6.94,13.26c-.32.55-.62.82-.9.82s-.64-.27-.9-.82l-6.9-13.29v23.24c0,.57-.33.86-1,.86S197.67,201.88,197.67,201.31Z"/><path class="cls-1" d="M305.34,158.57A136.06,136.06,0,1,1,441.4,294.63,136.05,136.05,0,0,1,305.34,158.57"/><path d="M386.18,148a1.15,1.15,0,0,1,.29-.74.8.8,0,0,1,.6-.35c.16,0,.4.17.71.5l1.05,1.13a5.11,5.11,0,0,0,1.89,1.14,8.5,8.5,0,0,0,3,.5,6.53,6.53,0,0,0,4.61-1.48,5.69,5.69,0,0,0,1.6-4.37,6.38,6.38,0,0,0-1-3.63,5.54,5.54,0,0,0-2.42-2.06c-1-.42-2-.85-3.14-1.29s-2.18-.88-3.14-1.31a5.49,5.49,0,0,1-2.41-2.12,6.61,6.61,0,0,1-1-3.74,7.46,7.46,0,0,1,.74-3.46,5.16,5.16,0,0,1,2-2.14,9.27,9.27,0,0,1,2.52-1,12.24,12.24,0,0,1,2.71-.29,13.52,13.52,0,0,1,4.34.68c1.34.46,2,1,2,1.54a1.33,1.33,0,0,1-.27.75.76.76,0,0,1-.62.39,2.73,2.73,0,0,1-.86-.37,9.88,9.88,0,0,0-4.64-1.12,7.58,7.58,0,0,0-4.25,1.12,4.12,4.12,0,0,0-1.72,3.76,4.66,4.66,0,0,0,.72,2.67,4.9,4.9,0,0,0,1.87,1.66,19.19,19.19,0,0,0,2.54,1q1.38.47,2.79,1.05a12.22,12.22,0,0,1,2.55,1.45,6.08,6.08,0,0,1,1.87,2.43,9.15,9.15,0,0,1,.72,3.81q0,4-2.16,5.94a8.23,8.23,0,0,1-5.79,2,10,10,0,0,1-5.56-1.44C386.91,149.6,386.18,148.73,386.18,148Z"/><path d="M404.47,124.86a1,1,0,0,1-.23-.66,1,1,0,0,1,.23-.67.74.74,0,0,1,.58-.27H420.5c.54,0,.82.3.82.9s-.28,1-.82,1h-6.71v25.78c0,.57-.33.86-1,.86s-1-.29-1-.86V125.13h-6.79A.74.74,0,0,1,404.47,124.86Z"/><path d="M425,150.91V124.08a.81.81,0,0,1,.24-.59.85.85,0,0,1,.62-.23h6.67a9.39,9.39,0,0,1,5.95,1.78q2.28,1.77,2.28,5.79,0,6.54-6.36,7.45l6.24,12.09a1,1,0,0,1-.17,1.15,1.06,1.06,0,0,1-.76.29c-.32,0-.72-.46-1.21-1.37l-6.13-12h-5.42v12.44c0,.57-.32.86-1,.86S425,151.48,425,150.91Zm1.95-14.23h5.58q6.28,0,6.28-5.81t-6.28-5.74h-5.58Z"/><path d="M444.08,151.54a1.74,1.74,0,0,1,0-2.27,1.34,1.34,0,0,1,1.06-.46,1.3,1.3,0,0,1,1,.48,1.63,1.63,0,0,1,0,2.23,1.3,1.3,0,0,1-1,.48A1.34,1.34,0,0,1,444.08,151.54Z"/><path d="M457.43,145.49c0-.68.31-1,.94-1s1,.28,1,.86a4.19,4.19,0,0,0,1.68,3.51,6.74,6.74,0,0,0,4.21,1.28,5.9,5.9,0,0,0,4.39-1.56,6.49,6.49,0,0,0,1.54-4.72v-.74a6.16,6.16,0,0,0-1.54-4.56,5.91,5.91,0,0,0-4.35-1.52H460c-.75,0-1.13-.26-1.13-.78,0-.05,0-.17,0-.35a3,3,0,0,0,0-.35l.77-11.43c.05-.57.29-.86.73-.86H471c.49,0,.74.31.74.94s-.25.93-.74.93h-9.55l-.68,10.1h4.55a8.22,8.22,0,0,1,5.69,1.92c1.42,1.27,2.14,3.26,2.14,6v.74c0,2.81-.73,4.87-2.17,6.18a8.13,8.13,0,0,1-5.71,2,8.35,8.35,0,0,1-5.72-1.87A6,6,0,0,1,457.43,145.49Z"/><path d="M476.27,144v-.47c0-3.72,1.37-6.14,4.13-7.26Q477,134.75,477,130q0-6.77,7.1-6.77t7.13,6.77q0,4.71-3.39,6.2,4.09,1.68,4.09,7.26V144c0,2.76-.7,4.79-2.12,6.09a9.32,9.32,0,0,1-11.41,0Q476.27,148.1,476.27,144Zm2-.07a6.48,6.48,0,0,0,1.56,4.74,5.86,5.86,0,0,0,4.36,1.58,5.66,5.66,0,0,0,4.33-1.6,6.57,6.57,0,0,0,1.52-4.72v-.5q0-6.21-5.88-6.21t-5.89,6.21Zm.74-13.75c0,3.45,1.71,5.17,5.15,5.17s5.18-1.72,5.18-5.17-1.73-5.08-5.18-5.08S479,126.75,479,130.14Z"/><path d="M385.28,176.46a1.76,1.76,0,0,1,.47-1l2.88-4.75a1.06,1.06,0,0,1,.94-.63c.57,0,.86.27.86.82v26.83c0,.57-.33.86-1,.86s-1-.29-1-.86V174l-1.64,2.81a.74.74,0,0,1-.7.5.8.8,0,0,1-.61-.27A.88.88,0,0,1,385.28,176.46Z"/><path d="M395,190.76v-.47q0-5.58,4.13-7.26-3.39-1.49-3.39-6.2,0-6.77,7.1-6.77t7.14,6.77q0,4.71-3.4,6.2,4.09,1.68,4.1,7.26v.47q0,4.14-2.13,6.09a9.31,9.31,0,0,1-11.4,0Q395,194.9,395,190.76Zm2-.07a6.48,6.48,0,0,0,1.56,4.74,5.88,5.88,0,0,0,4.37,1.58,5.69,5.69,0,0,0,4.33-1.6,6.61,6.61,0,0,0,1.52-4.72v-.5q0-6.21-5.89-6.21T397,190.19Zm.74-13.75q0,5.17,5.15,5.17t5.19-5.17q0-5.08-5.19-5.09T397.72,176.94Z"/><path d="M414.56,198.34a1.74,1.74,0,0,1,0-2.27,1.34,1.34,0,0,1,1.06-.46,1.32,1.32,0,0,1,1,.48,1.63,1.63,0,0,1,0,2.23,1.32,1.32,0,0,1-1,.48A1.34,1.34,0,0,1,414.56,198.34Z"/><path d="M418.35,190.87a1.25,1.25,0,0,1,.16-.59l9.9-19.56a1.08,1.08,0,0,1,1-.66,1,1,0,0,1,.64.23.73.73,0,0,1,.3.59,1,1,0,0,1-.12.47l-9.36,18.48h8.38v-8.42c0-.52.33-.78,1-.78s1,.26,1,.78v8.42h2.23c.57,0,.85.31.85.92a1,1,0,0,1-.23.67.77.77,0,0,1-.62.29h-2.23v6c0,.57-.32.86-1,.86s-1-.29-1-.86v-6h-10A.75.75,0,0,1,418.35,190.87Z"/><path d="M445.61,197.71V171c0-.63.33-.94,1-.94s1.06.53,1.64,1.6l7.13,14,7.18-14c.57-1.07,1.12-1.6,1.64-1.6s1,.31,1,.94v26.71c0,.57-.32.86-1,.86s-1-.29-1-.86v-23.2l-6.94,13.26c-.31.54-.61.82-.9.82s-.64-.28-.89-.82l-6.91-13.3v23.24c0,.57-.32.86-1,.86S445.61,198.28,445.61,197.71Z"/><path d="M471.31,197.71V171c0-.63.33-.94,1-.94s1.06.53,1.64,1.6l7.13,14,7.18-14c.57-1.07,1.12-1.6,1.64-1.6s1,.31,1,.94v26.71c0,.57-.32.86-1,.86s-1-.29-1-.86v-23.2L482,187.77c-.31.54-.61.82-.9.82s-.63-.28-.89-.82l-6.91-13.3v23.24c0,.57-.32.86-1,.86S471.31,198.28,471.31,197.71Z"/><path class="cls-1" d="M826.89,161.51A124.73,124.73,0,1,1,699.82,39.43,125,125,0,0,1,826.89,161.51"/><path d="M657.81,149.26a1.12,1.12,0,0,1,.29-.74.84.84,0,0,1,.6-.35c.16,0,.39.17.71.51l1.05,1.13a5.11,5.11,0,0,0,1.89,1.13,8.27,8.27,0,0,0,3,.51A6.58,6.58,0,0,0,670,150a5.7,5.7,0,0,0,1.59-4.37,6.33,6.33,0,0,0-1-3.63,5.64,5.64,0,0,0-2.42-2.07c-1-.41-2-.84-3.14-1.28s-2.18-.88-3.14-1.31a5.69,5.69,0,0,1-2.42-2.12,6.7,6.7,0,0,1-1-3.75,7.45,7.45,0,0,1,.74-3.45,5.11,5.11,0,0,1,2-2.14,9,9,0,0,1,2.52-1,12.24,12.24,0,0,1,2.71-.29,13.52,13.52,0,0,1,4.34.68c1.34.46,2,1,2,1.54a1.3,1.3,0,0,1-.27.74.77.77,0,0,1-.63.39,2.56,2.56,0,0,1-.85-.37,9.77,9.77,0,0,0-1.89-.74,9.43,9.43,0,0,0-2.75-.37,7.72,7.72,0,0,0-4.26,1.11,4.15,4.15,0,0,0-1.71,3.77,4.71,4.71,0,0,0,.72,2.67,5,5,0,0,0,1.87,1.65,20,20,0,0,0,2.54,1.06q1.38.47,2.79,1.05a12.19,12.19,0,0,1,2.55,1.44,6.19,6.19,0,0,1,1.87,2.44,9.11,9.11,0,0,1,.72,3.8q0,4-2.16,5.95a8.28,8.28,0,0,1-5.79,2,10,10,0,0,1-5.56-1.44C658.54,150.92,657.81,150,657.81,149.26Z"/><path d="M676.1,126.18a1,1,0,0,1-.24-.67,1,1,0,0,1,.24-.66.73.73,0,0,1,.58-.27h15.45c.54,0,.82.3.82.89s-.28,1-.82,1h-6.71v25.78c0,.57-.33.86-1,.86s-1-.29-1-.86V126.45h-6.79A.73.73,0,0,1,676.1,126.18Z"/><path d="M696.61,152.23V125.4a.79.79,0,0,1,.24-.59.85.85,0,0,1,.62-.23h6.67a9.46,9.46,0,0,1,6,1.77q2.28,1.79,2.28,5.79,0,6.56-6.36,7.45l6.24,12.09a1,1,0,0,1,.12.47.94.94,0,0,1-.29.68,1,1,0,0,1-.77.3c-.31,0-.71-.46-1.2-1.37l-6.13-12h-5.42v12.44c0,.57-.32.86-1,.86S696.61,152.8,696.61,152.23ZM698.56,138h5.58q6.27,0,6.28-5.81t-6.28-5.73h-5.58Z"/><path d="M715.71,152.85a1.73,1.73,0,0,1,0-2.26,1.35,1.35,0,0,1,1.06-.47,1.28,1.28,0,0,1,1,.49,1.64,1.64,0,0,1,.44,1.11,1.61,1.61,0,0,1-.44,1.11,1.28,1.28,0,0,1-1,.49A1.35,1.35,0,0,1,715.71,152.85Z"/><path d="M729.06,146.81c0-.68.31-1,.94-1s1,.29,1,.86a4.19,4.19,0,0,0,1.68,3.51,6.68,6.68,0,0,0,4.21,1.29,5.9,5.9,0,0,0,4.39-1.56,6.49,6.49,0,0,0,1.54-4.72v-.74a6.16,6.16,0,0,0-1.54-4.56,5.92,5.92,0,0,0-4.35-1.53h-5.35c-.75,0-1.13-.26-1.13-.78,0-.05,0-.16,0-.35a3,3,0,0,0,0-.35l.77-11.42c.05-.58.29-.86.73-.86h10.63c.49,0,.74.31.74.93s-.25.94-.74.94h-9.55l-.68,10.1H737a8.22,8.22,0,0,1,5.68,1.91q2.14,1.92,2.15,6v.74c0,2.81-.73,4.87-2.17,6.18a8.17,8.17,0,0,1-5.71,2,8.35,8.35,0,0,1-5.72-1.87A6,6,0,0,1,729.06,146.81Z"/><path d="M748.52,145.13V132.77q0-4.26,2.15-6.22a9.43,9.43,0,0,1,11.46-.06,6,6,0,0,1,2.11,4.64c0,.65-.3,1-.9,1s-1.05-.29-1.05-.89a4.15,4.15,0,0,0-1.7-3.43,6.62,6.62,0,0,0-4.21-1.33q-5.91,0-5.91,6.32v6.39c1.28-1.84,3.3-2.77,6.07-2.77q7.69,0,7.7,7.73v1c0,2.83-.71,4.91-2.13,6.22a9.27,9.27,0,0,1-11.43,0C749.24,150,748.52,148,748.52,145.13Zm2,.06q0,6.26,5.91,6.26t5.91-6.26v-1.05c0-2.1-.51-3.62-1.51-4.55a6.2,6.2,0,0,0-4.4-1.4q-5.91,0-5.91,5.6Z"/><path d="M656.91,177.77a1.77,1.77,0,0,1,.47-1l2.88-4.76a1.07,1.07,0,0,1,.94-.62c.57,0,.86.27.86.82V199c0,.57-.33.86-1,.86s-1-.29-1-.86V175.35l-1.64,2.81a.75.75,0,0,1-.7.51.8.8,0,0,1-.61-.27A.88.88,0,0,1,656.91,177.77Z"/><path d="M666,178.05v-5.82a.78.78,0,0,1,.29-.58.92.92,0,0,1,.64-.27h13.85a1,1,0,0,1,.62.27.77.77,0,0,1,.31.58v3.05a1.29,1.29,0,0,1-.23.7l-12,23.48a.8.8,0,0,1-.69.47,1.32,1.32,0,0,1-.8-.26.77.77,0,0,1-.35-.64,2.12,2.12,0,0,1,.16-.51l12-23.28v-2H668v4.8a.77.77,0,0,1-.3.6,1,1,0,0,1-1.36,0A.76.76,0,0,1,666,178.05Z"/><path d="M681.58,199.65a1.76,1.76,0,0,1,0-2.26,1.39,1.39,0,0,1,1.07-.47,1.31,1.31,0,0,1,1,.49,1.62,1.62,0,0,1,.43,1.11,1.6,1.6,0,0,1-.43,1.11,1.31,1.31,0,0,1-1,.49A1.39,1.39,0,0,1,681.58,199.65Z"/><path d="M687.13,178.05v-5.82a.79.79,0,0,1,.3-.58.92.92,0,0,1,.64-.27h13.85a1,1,0,0,1,.62.27.77.77,0,0,1,.31.58v3.05a1.29,1.29,0,0,1-.23.7l-12,23.48a.8.8,0,0,1-.69.47,1.32,1.32,0,0,1-.8-.26.77.77,0,0,1-.35-.64,2.12,2.12,0,0,1,.16-.51l12-23.28v-2H689.09v4.8a.77.77,0,0,1-.3.6,1,1,0,0,1-1.36,0A.77.77,0,0,1,687.13,178.05Z"/><path d="M714.4,199V172.31c0-.62.32-.93,1-.93s1.07.53,1.64,1.6l7.14,14,7.17-14c.57-1.07,1.12-1.6,1.64-1.6s1,.31,1,.93V199c0,.57-.32.86-1,.86s-1-.29-1-.86V175.82L725,189.08c-.31.55-.61.82-.89.82s-.64-.27-.9-.82l-6.9-13.3V199c0,.57-.33.86-1,.86S714.4,199.6,714.4,199Z"/><path d="M740.1,199V172.31c0-.62.32-.93,1-.93s1.07.53,1.64,1.6l7.14,14L757,173c.57-1.07,1.12-1.6,1.64-1.6s1,.31,1,.93V199c0,.57-.33.86-1,.86s-1-.29-1-.86V175.82l-7,13.26c-.31.55-.61.82-.89.82s-.64-.27-.9-.82l-6.9-13.3V199c0,.57-.33.86-1,.86S740.1,199.6,740.1,199Z"/><path class="cls-1" d="M1055.16,162.42A113.4,113.4,0,1,1,939.7,51.52a113.85,113.85,0,0,1,115.46,110.9"/><path d="M887.22,150a1.12,1.12,0,0,1,.3-.74.77.77,0,0,1,.6-.35c.16,0,.39.17.7.5l1.06,1.13a5.11,5.11,0,0,0,1.89,1.14,8.46,8.46,0,0,0,3,.5,6.51,6.51,0,0,0,4.6-1.48,5.65,5.65,0,0,0,1.6-4.37,6.32,6.32,0,0,0-1-3.62,5.5,5.5,0,0,0-2.42-2.07c-1-.42-2-.85-3.14-1.29s-2.18-.88-3.14-1.31a5.56,5.56,0,0,1-2.42-2.12,6.69,6.69,0,0,1-1-3.74,7.34,7.34,0,0,1,.75-3.46,5.1,5.1,0,0,1,2-2.14,9.34,9.34,0,0,1,2.51-1,12.37,12.37,0,0,1,2.71-.29,13.31,13.31,0,0,1,4.35.69c1.34.45,2,1,2,1.54a1.32,1.32,0,0,1-.27.74.78.78,0,0,1-.63.39,2.73,2.73,0,0,1-.86-.37,9.88,9.88,0,0,0-4.64-1.12,7.6,7.6,0,0,0-4.25,1.12,4.13,4.13,0,0,0-1.71,3.76,4.66,4.66,0,0,0,.72,2.67,4.83,4.83,0,0,0,1.87,1.66,19,19,0,0,0,2.53,1q1.39.47,2.79,1.05a12,12,0,0,1,2.56,1.45,6.17,6.17,0,0,1,1.87,2.43,9.19,9.19,0,0,1,.72,3.81q0,4-2.16,5.94a8.27,8.27,0,0,1-5.8,2,10,10,0,0,1-5.55-1.44C888,151.67,887.22,150.8,887.22,150Z"/><path d="M905.51,126.93a1,1,0,0,1-.23-.66,1,1,0,0,1,.23-.67.76.76,0,0,1,.59-.27h15.44c.55,0,.82.3.82.9s-.27,1-.82,1h-6.7V153c0,.57-.33.86-1,.86s-1-.29-1-.86V127.2H906.1A.76.76,0,0,1,905.51,126.93Z"/><path d="M926,153V126.15a.84.84,0,0,1,.23-.59.89.89,0,0,1,.63-.23h6.66a9.37,9.37,0,0,1,6,1.78q2.28,1.77,2.28,5.79,0,6.56-6.35,7.45l6.24,12.09a1.11,1.11,0,0,1,.11.46.94.94,0,0,1-.29.69,1,1,0,0,1-.76.29c-.31,0-.72-.46-1.21-1.37l-6.12-12H928V153c0,.57-.33.86-1,.86S926,153.55,926,153Zm2-14.23h5.57q6.29,0,6.28-5.81t-6.28-5.74H928Z"/><path d="M945.12,153.61a1.78,1.78,0,0,1,0-2.27,1.38,1.38,0,0,1,1.07-.46,1.33,1.33,0,0,1,1,.48,1.66,1.66,0,0,1,0,2.23,1.33,1.33,0,0,1-1,.48A1.38,1.38,0,0,1,945.12,153.61Z"/><path d="M958.47,147.56c0-.67.32-1,.94-1s1,.28,1,.86a4.19,4.19,0,0,0,1.68,3.51,6.76,6.76,0,0,0,4.21,1.28,5.9,5.9,0,0,0,4.39-1.56,6.45,6.45,0,0,0,1.54-4.72v-.74a6.12,6.12,0,0,0-1.54-4.56,5.91,5.91,0,0,0-4.35-1.52H961c-.75,0-1.13-.26-1.13-.78a3,3,0,0,1,0-.35c0-.18,0-.3,0-.35l.77-11.43c0-.57.29-.86.73-.86h10.63c.49,0,.74.31.74.94s-.25.93-.74.93h-9.56l-.67,10.1h4.55a8.19,8.19,0,0,1,5.68,1.92q2.15,1.91,2.14,6v.74q0,4.22-2.16,6.18a8.15,8.15,0,0,1-5.72,2,8.32,8.32,0,0,1-5.71-1.87A5.93,5.93,0,0,1,958.47,147.56Z"/><path d="M975.87,146.14a1.36,1.36,0,0,1,.15-.59L985.93,126a1.08,1.08,0,0,1,1-.66,1,1,0,0,1,.64.23.75.75,0,0,1,.29.59,1,1,0,0,1-.12.47l-9.36,18.48h8.39v-8.42c0-.52.32-.78,1-.78s1,.26,1,.78v8.42h2.22c.57,0,.86.31.86.92a1,1,0,0,1-.23.67.79.79,0,0,1-.63.29H988.7v6c0,.57-.33.86-1,.86s-1-.29-1-.86v-6h-10A.75.75,0,0,1,975.87,146.14Z"/><path d="M886.33,178.53a1.74,1.74,0,0,1,.46-1l2.89-4.75a1.05,1.05,0,0,1,.94-.63c.57,0,.85.27.85.82v26.83c0,.57-.32.86-1,.86s-1-.29-1-.86V176.11l-1.63,2.81a.75.75,0,0,1-.71.5.8.8,0,0,1-.6-.27A.88.88,0,0,1,886.33,178.53Z"/><path d="M895.45,178.8V173a.83.83,0,0,1,.29-.59.94.94,0,0,1,.65-.27h13.84a1,1,0,0,1,.63.27.82.82,0,0,1,.31.59v3a1.21,1.21,0,0,1-.24.7l-12,23.48a.77.77,0,0,1-.68.47,1.29,1.29,0,0,1-.8-.25.79.79,0,0,1-.35-.65,1.81,1.81,0,0,1,.16-.51l12-23.28v-2H897.4v4.8a.77.77,0,0,1-.29.6,1,1,0,0,1-.68.26,1,1,0,0,1-.69-.26A.77.77,0,0,1,895.45,178.8Z"/><path d="M911,200.41a1.74,1.74,0,0,1,0-2.27,1.36,1.36,0,0,1,1.07-.46,1.33,1.33,0,0,1,1,.48,1.66,1.66,0,0,1,0,2.23,1.33,1.33,0,0,1-1,.48A1.36,1.36,0,0,1,911,200.41Z"/><path d="M916.82,199.78V196a5.25,5.25,0,0,1,1-3,11.09,11.09,0,0,1,2.48-2.6l3.19-2.42,3.2-2.45a11.33,11.33,0,0,0,2.44-2.73,6,6,0,0,0,1-3.24,5.7,5.7,0,0,0-1.48-3.9,5.27,5.27,0,0,0-4.17-1.68,5.21,5.21,0,0,0-3.65,1.27,4.71,4.71,0,0,0-1.38,3.65.73.73,0,0,1-.28.56,1.1,1.1,0,0,1-.78.26c-.59,0-.89-.45-.89-1.33a5.75,5.75,0,0,1,2-4.48,7.94,7.94,0,0,1,10.47.35,7.18,7.18,0,0,1,2.1,5.22,7.68,7.68,0,0,1-1,3.75,10.81,10.81,0,0,1-2.46,3c-1,.83-2,1.69-3.18,2.57l-3.19,2.3a11,11,0,0,0-2.48,2.3,4.21,4.21,0,0,0-1,2.54v2.77h12.87a.71.71,0,0,1,.55.27,1,1,0,0,1,.23.66,1,1,0,0,1-.25.65.72.72,0,0,1-.53.29H917.76a1,1,0,0,1-.64-.23A.77.77,0,0,1,916.82,199.78Z"/><path d="M944.51,199.78V173.07c0-.63.33-.94,1-.94s1.06.53,1.64,1.6l7.13,14,7.18-14c.57-1.07,1.12-1.6,1.64-1.6s1,.31,1,.94v26.71c0,.57-.32.86-1,.86s-1-.29-1-.86v-23.2l-6.94,13.26c-.31.54-.61.82-.9.82s-.63-.28-.89-.82l-6.91-13.3v23.24c0,.57-.32.86-1,.86S944.51,200.35,944.51,199.78Z"/><path d="M970.21,199.78V173.07c0-.63.33-.94,1-.94s1.07.53,1.64,1.6l7.13,14,7.18-14c.57-1.07,1.12-1.6,1.64-1.6s1,.31,1,.94v26.71c0,.57-.32.86-1,.86s-1-.29-1-.86v-23.2l-6.94,13.26c-.31.54-.61.82-.9.82s-.63-.28-.89-.82l-6.91-13.3v23.24c0,.57-.32.86-1,.86S970.21,200.35,970.21,199.78Z"/><path class="cls-1" d="M1259,162a102.05,102.05,0,1,1-104-99.88A102.3,102.3,0,0,1,1259,162"/><path d="M1111.59,143.71a1.18,1.18,0,0,1,.29-.74.84.84,0,0,1,.61-.35c.15,0,.39.17.7.51l1,1.13a5.11,5.11,0,0,0,1.89,1.13,8.27,8.27,0,0,0,3,.51,6.54,6.54,0,0,0,4.61-1.49,5.66,5.66,0,0,0,1.6-4.36,6.34,6.34,0,0,0-1-3.63,5.64,5.64,0,0,0-2.42-2.07c-1-.41-2-.84-3.14-1.28s-2.18-.88-3.14-1.31a5.63,5.63,0,0,1-2.41-2.13,6.64,6.64,0,0,1-1-3.74,7.45,7.45,0,0,1,.74-3.45,5.2,5.2,0,0,1,2-2.15,8.93,8.93,0,0,1,2.52-1,11.67,11.67,0,0,1,2.71-.29,13.21,13.21,0,0,1,4.34.68c1.34.45,2,1,2,1.54a1.32,1.32,0,0,1-.27.74.76.76,0,0,1-.62.39,2.49,2.49,0,0,1-.86-.37,9.77,9.77,0,0,0-1.89-.74,9.43,9.43,0,0,0-2.75-.37A7.66,7.66,0,0,0,1116,122a4.13,4.13,0,0,0-1.72,3.76,4.66,4.66,0,0,0,.72,2.67,4.9,4.9,0,0,0,1.87,1.66,20.64,20.64,0,0,0,2.54,1.06q1.38.47,2.79,1a12.19,12.19,0,0,1,2.55,1.44,6.12,6.12,0,0,1,1.87,2.44,9.1,9.1,0,0,1,.73,3.8c0,2.65-.73,4.64-2.17,6a8.28,8.28,0,0,1-5.79,2,10,10,0,0,1-5.56-1.44C1112.32,145.36,1111.59,144.49,1111.59,143.71Z"/><path d="M1129.88,120.62a1.06,1.06,0,0,1,0-1.32.75.75,0,0,1,.59-.27h15.44c.54,0,.82.29.82.89s-.28,1-.82,1h-6.71v25.78c0,.57-.32.85-1,.85s-1-.28-1-.85V120.9h-6.78A.73.73,0,0,1,1129.88,120.62Z"/><path d="M1150.39,146.68V119.84a.78.78,0,0,1,.24-.58.81.81,0,0,1,.62-.23h6.67a9.44,9.44,0,0,1,5.95,1.77q2.28,1.77,2.28,5.79,0,6.56-6.36,7.45l6.24,12.09a1,1,0,0,1,.12.47.94.94,0,0,1-.29.68,1,1,0,0,1-.76.29c-.32,0-.72-.45-1.21-1.36l-6.13-12h-5.42v12.44c0,.57-.32.85-1,.85S1150.39,147.25,1150.39,146.68Zm1.95-14.24h5.58q6.28,0,6.28-5.81t-6.28-5.73h-5.58Z"/><path d="M1169.49,147.3a1.73,1.73,0,0,1,0-2.26,1.37,1.37,0,0,1,1.06-.47,1.32,1.32,0,0,1,1,.49,1.65,1.65,0,0,1,0,2.22,1.32,1.32,0,0,1-1,.49A1.37,1.37,0,0,1,1169.49,147.3Z"/><path d="M1182.84,141.26c0-.68.31-1,.94-1s1,.29,1,.86a4.19,4.19,0,0,0,1.68,3.51,6.7,6.7,0,0,0,4.21,1.29,5.9,5.9,0,0,0,4.39-1.56,6.51,6.51,0,0,0,1.54-4.72v-.74a6.2,6.2,0,0,0-1.54-4.57,6,6,0,0,0-4.35-1.52h-5.34q-1.14,0-1.14-.78s0-.17,0-.35a3,3,0,0,0,0-.35l.77-11.42c0-.58.29-.86.73-.86h10.63c.5,0,.74.31.74.93s-.24.94-.74.94h-9.55l-.68,10.1h4.55a8.26,8.26,0,0,1,5.69,1.91c1.42,1.27,2.14,3.26,2.14,6v.74q0,4.22-2.17,6.18a8.15,8.15,0,0,1-5.71,2,8.31,8.31,0,0,1-5.71-1.87A5.94,5.94,0,0,1,1182.84,141.26Z"/><path d="M1201.33,146.68v-3.79a5.28,5.28,0,0,1,1-3,11,11,0,0,1,2.48-2.59l3.2-2.42,3.19-2.46a11.33,11.33,0,0,0,2.44-2.73,6,6,0,0,0,1-3.23,5.72,5.72,0,0,0-1.49-3.91,5.3,5.3,0,0,0-4.17-1.67,5.19,5.19,0,0,0-3.65,1.27,4.69,4.69,0,0,0-1.38,3.64.77.77,0,0,1-.27.57,1.13,1.13,0,0,1-.78.25c-.6,0-.9-.44-.9-1.33a5.76,5.76,0,0,1,2-4.48,8,8,0,0,1,10.47.35,7.2,7.2,0,0,1,2.11,5.23,7.65,7.65,0,0,1-1,3.74,10.67,10.67,0,0,1-2.46,3c-1,.84-2,1.69-3.18,2.58l-3.19,2.3a10.55,10.55,0,0,0-2.48,2.3,4.17,4.17,0,0,0-1,2.53v2.77h12.87a.68.68,0,0,1,.54.28,1,1,0,0,1,0,1.3.68.68,0,0,1-.52.29h-13.89a1,1,0,0,1-.64-.23A.73.73,0,0,1,1201.33,146.68Z"/><path d="M1110.69,172.22a1.77,1.77,0,0,1,.47-1l2.89-4.76a1,1,0,0,1,.93-.62c.57,0,.86.27.86.81v26.84c0,.57-.33.85-1,.85s-1-.28-1-.85V169.8l-1.64,2.81a.74.74,0,0,1-.7.51.78.78,0,0,1-.6-.27A.91.91,0,0,1,1110.69,172.22Z"/><path d="M1121.06,186.38V174q0-4.26,2.15-6.22a9.43,9.43,0,0,1,11.46-.06,6,6,0,0,1,2.11,4.64c0,.65-.3,1-.9,1s-1.05-.3-1.05-.89a4.18,4.18,0,0,0-1.7-3.44,6.66,6.66,0,0,0-4.21-1.32q-5.91,0-5.91,6.31v6.4q1.92-2.78,6.07-2.77,7.7,0,7.7,7.72v1c0,2.83-.71,4.91-2.13,6.22a9.27,9.27,0,0,1-11.43,0C1121.78,191.29,1121.06,189.21,1121.06,186.38Zm2,.06q0,6.26,5.91,6.26t5.91-6.26v-1.05q0-3.15-1.5-4.55a6.24,6.24,0,0,0-4.41-1.4c-3.94,0-5.91,1.86-5.91,5.6Z"/><path d="M1140.63,194.1a1.73,1.73,0,0,1,0-2.26,1.37,1.37,0,0,1,1.06-.47,1.32,1.32,0,0,1,1,.49,1.65,1.65,0,0,1,0,2.22,1.32,1.32,0,0,1-1,.49A1.37,1.37,0,0,1,1140.63,194.1Z"/><path d="M1146.18,188.06c0-.68.31-1,.94-1s1,.29,1,.86a4.19,4.19,0,0,0,1.68,3.51,6.68,6.68,0,0,0,4.21,1.29,5.9,5.9,0,0,0,4.39-1.56,6.51,6.51,0,0,0,1.54-4.72v-.74a6.2,6.2,0,0,0-1.54-4.57,6,6,0,0,0-4.35-1.52h-5.34q-1.14,0-1.14-.78c0-.05,0-.17,0-.35a3,3,0,0,0,0-.35l.77-11.42c0-.58.29-.86.73-.86h10.63c.5,0,.74.31.74.93s-.24.94-.74.94h-9.55l-.68,10.1h4.55a8.26,8.26,0,0,1,5.69,1.91c1.42,1.27,2.14,3.26,2.14,6v.74c0,2.81-.73,4.87-2.17,6.18a8.17,8.17,0,0,1-5.71,2,8.36,8.36,0,0,1-5.71-1.87A5.94,5.94,0,0,1,1146.18,188.06Z"/><path d="M1174.1,193.48V166.76c0-.62.33-.93,1-.93s1.06.53,1.64,1.59l7.13,14,7.18-14c.57-1.06,1.12-1.59,1.64-1.59s1,.31,1,.93v26.72c0,.57-.32.85-1,.85s-1-.28-1-.85V170.27l-6.94,13.26c-.31.55-.61.82-.9.82s-.63-.27-.89-.82l-6.91-13.3v23.25c0,.57-.32.85-1,.85S1174.1,194.05,1174.1,193.48Z"/><path d="M1199.8,193.48V166.76c0-.62.33-.93,1-.93s1.07.53,1.64,1.59l7.13,14,7.18-14c.57-1.06,1.12-1.59,1.64-1.59s1,.31,1,.93v26.72c0,.57-.32.85-1,.85s-1-.28-1-.85V170.27l-6.94,13.26c-.31.55-.61.82-.9.82s-.63-.27-.89-.82l-6.9-13.3v23.25c0,.57-.33.85-1,.85S1199.8,194.05,1199.8,193.48Z"/><path class="cls-1" d="M1445.59,162.91a90.72,90.72,0,1,1-92.36-88.72,91.07,91.07,0,0,1,92.36,88.72"/><path d="M1301,150a1.1,1.1,0,0,1,.29-.74.8.8,0,0,1,.61-.35c.15,0,.38.17.7.5l1,1.13a5.11,5.11,0,0,0,1.89,1.14,8.5,8.5,0,0,0,3,.5,6.53,6.53,0,0,0,4.61-1.48,5.68,5.68,0,0,0,1.59-4.37,6.32,6.32,0,0,0-1-3.62,5.64,5.64,0,0,0-2.42-2.07c-1-.42-2-.85-3.14-1.29s-2.18-.88-3.14-1.3a5.71,5.71,0,0,1-2.42-2.13,6.69,6.69,0,0,1-1-3.74,7.46,7.46,0,0,1,.74-3.46,5.16,5.16,0,0,1,2-2.14,8.93,8.93,0,0,1,2.52-1,11.66,11.66,0,0,1,2.71-.3,13.25,13.25,0,0,1,4.34.69c1.34.45,2,1,2,1.54a1.32,1.32,0,0,1-.27.74.76.76,0,0,1-.62.39,2.73,2.73,0,0,1-.86-.37,9.16,9.16,0,0,0-1.89-.74,9.43,9.43,0,0,0-2.75-.37,7.66,7.66,0,0,0-4.25,1.11,4.12,4.12,0,0,0-1.72,3.76,4.66,4.66,0,0,0,.72,2.67,4.9,4.9,0,0,0,1.87,1.66,18.65,18.65,0,0,0,2.54,1c.92.31,1.85.67,2.79,1.06a12.19,12.19,0,0,1,2.55,1.44,6,6,0,0,1,1.87,2.44,9.1,9.1,0,0,1,.73,3.8c0,2.65-.73,4.63-2.17,6a8.28,8.28,0,0,1-5.79,2,10,10,0,0,1-5.56-1.45C1301.7,151.67,1301,150.8,1301,150Z"/><path d="M1319.26,126.93a1,1,0,0,1-.23-.66,1,1,0,0,1,.23-.67.73.73,0,0,1,.58-.27h15.45c.54,0,.82.3.82.9s-.28,1-.82,1h-6.71V153c0,.58-.33.86-1,.86s-1-.28-1-.86V127.2h-6.79A.73.73,0,0,1,1319.26,126.93Z"/><path d="M1339.77,153V126.15a.77.77,0,0,1,.24-.58.81.81,0,0,1,.62-.24h6.67a9.4,9.4,0,0,1,6,1.78q2.28,1.77,2.28,5.79,0,6.56-6.36,7.45l6.24,12.09a1,1,0,0,1,.12.47,1,1,0,0,1-.29.68,1.06,1.06,0,0,1-.77.29c-.31,0-.71-.45-1.2-1.36l-6.13-12h-5.42V153c0,.58-.32.86-1,.86S1339.77,153.56,1339.77,153Zm2-14.23h5.58q6.27,0,6.28-5.81c0-3.82-2.1-5.74-6.28-5.74h-5.58Z"/><path d="M1358.87,153.61a1.63,1.63,0,0,1-.42-1.13,1.61,1.61,0,0,1,.42-1.13,1.32,1.32,0,0,1,1.06-.47,1.34,1.34,0,0,1,1,.48,1.66,1.66,0,0,1,0,2.23,1.37,1.37,0,0,1-2.08,0Z"/><path d="M1372.22,147.56c0-.67.31-1,.94-1s1,.28,1,.86a4.19,4.19,0,0,0,1.68,3.51,6.76,6.76,0,0,0,4.21,1.28,5.9,5.9,0,0,0,4.39-1.56,6.49,6.49,0,0,0,1.54-4.72v-.74a6.18,6.18,0,0,0-1.54-4.56,6,6,0,0,0-4.35-1.52h-5.35c-.75,0-1.13-.26-1.13-.78,0,0,0-.17,0-.35a3,3,0,0,0,0-.35l.77-11.43c0-.57.29-.86.73-.86h10.63c.5,0,.74.31.74.94s-.24.93-.74.93h-9.55l-.68,10.11h4.55a8.21,8.21,0,0,1,5.69,1.91c1.42,1.27,2.14,3.26,2.14,6v.74q0,4.22-2.17,6.19a8.17,8.17,0,0,1-5.71,2,8.31,8.31,0,0,1-5.71-1.88A5.91,5.91,0,0,1,1372.22,147.56Z"/><path d="M1391.68,145.89V133.52c0-2.83.71-4.91,2.13-6.22a8.07,8.07,0,0,1,5.71-2,8.17,8.17,0,0,1,5.71,2c1.45,1.31,2.17,3.39,2.17,6.22v12.37q0,4.25-2.17,6.22a8.17,8.17,0,0,1-5.71,2,8.07,8.07,0,0,1-5.71-2Q1391.68,150.13,1391.68,145.89Zm2,0q0,6.31,5.89,6.31a5.83,5.83,0,0,0,4.39-1.58,6.55,6.55,0,0,0,1.54-4.73V133.52a6.59,6.59,0,0,0-1.54-4.74,5.87,5.87,0,0,0-4.39-1.58q-5.89,0-5.89,6.32Zm5-5.07a1.47,1.47,0,0,1-.37-1,1.44,1.44,0,0,1,.37-1,1.27,1.27,0,0,1,1-.39,1.2,1.2,0,0,1,.91.39,1.41,1.41,0,0,1,.38,1,1.43,1.43,0,0,1-.38,1,1.16,1.16,0,0,1-.91.42A1.23,1.23,0,0,1,1398.6,140.82Z"/><path d="M1300.07,178.53a1.76,1.76,0,0,1,.47-1l2.88-4.75a1.06,1.06,0,0,1,.94-.63c.57,0,.86.27.86.82v26.83c0,.57-.33.86-1,.86s-1-.29-1-.86V176.11l-1.64,2.81a.75.75,0,0,1-.7.51.83.83,0,0,1-.61-.28A.88.88,0,0,1,1300.07,178.53Z"/><path d="M1309.2,194.36c0-.67.31-1,.93-1s1,.28,1,.86a4.21,4.21,0,0,0,1.67,3.51A6.77,6.77,0,0,0,1317,199a5.89,5.89,0,0,0,4.38-1.56,6.45,6.45,0,0,0,1.54-4.72V192a6.14,6.14,0,0,0-1.54-4.56,5.94,5.94,0,0,0-4.35-1.52h-5.34c-.75,0-1.13-.26-1.13-.78,0-.05,0-.17,0-.35s0-.3,0-.35l.77-11.43c0-.57.29-.86.73-.86h10.63c.49,0,.74.31.74.94s-.25.93-.74.93h-9.56l-.67,10.1h4.55a8.17,8.17,0,0,1,5.68,1.92q2.14,1.9,2.14,6v.74q0,4.22-2.16,6.19a8.19,8.19,0,0,1-5.71,2,8.34,8.34,0,0,1-5.72-1.88A5.9,5.9,0,0,1,1309.2,194.36Z"/><path d="M1328.29,200.41a1.67,1.67,0,0,1-.41-1.13,1.65,1.65,0,0,1,.41-1.13,1.38,1.38,0,0,1,2.08,0,1.66,1.66,0,0,1,0,2.23,1.34,1.34,0,0,1-1,.49A1.37,1.37,0,0,1,1328.29,200.41Z"/><path d="M1334.47,194.32c0-.65.3-1,.9-1s1,.3,1,.89a4.16,4.16,0,0,0,1.71,3.44,6.73,6.73,0,0,0,4.22,1.32q5.88,0,5.89-6.31v-6.4q-1.92,2.78-6.09,2.77-7.63,0-7.64-7.72v-1c0-2.83.71-4.91,2.12-6.22a8,8,0,0,1,5.68-2,8.16,8.16,0,0,1,5.73,2c1.43,1.31,2.14,3.39,2.14,6.22v12.37q0,4.25-2.14,6.22a9.37,9.37,0,0,1-11.43.05A6,6,0,0,1,1334.47,194.32Zm2-13q0,3.15,1.5,4.55a6.17,6.17,0,0,0,4.39,1.4c3.92,0,5.89-1.86,5.89-5.6v-1.39a6.43,6.43,0,0,0-1.55-4.71,5.88,5.88,0,0,0-4.38-1.56,5.75,5.75,0,0,0-4.33,1.56,6.46,6.46,0,0,0-1.52,4.71Z"/><path d="M1363.45,199.78V173.07c0-.63.32-.94,1-.94s1.07.54,1.64,1.6l7.14,14,7.17-14c.57-1.06,1.12-1.6,1.64-1.6s1,.31,1,.94v26.71c0,.57-.32.86-1,.86s-1-.29-1-.86v-23.2l-6.94,13.26c-.31.54-.61.82-.89.82s-.64-.28-.9-.82l-6.91-13.3v23.24c0,.57-.32.86-1,.86S1363.45,200.35,1363.45,199.78Z"/><path d="M1389.14,199.78V173.07c0-.63.33-.94,1-.94s1.07.54,1.64,1.6l7.13,14,7.18-14c.57-1.06,1.12-1.6,1.64-1.6s1,.31,1,.94v26.71c0,.57-.32.86-1,.86s-1-.29-1-.86v-23.2l-6.94,13.26c-.31.54-.61.82-.9.82s-.63-.28-.89-.82l-6.9-13.3v23.24c0,.57-.33.86-1,.86S1389.14,200.35,1389.14,199.78Z"/></svg>
